DBRep_DrawableShape

CASCADE Topology V3, (c) Open Cascade
Locations 7
1
              1              -0               0              -0 
              0               1               0               0 
             -0               0               1              -0 
2  1 -1 0
1
              1              -0               0              -0 
              0               1               0               0 
             -0               0               1              -0 
2  3 -1 0
2  1 1 3 -1 0
1
              1              -0               0              -0 
              0               1               0               0 
             -0               0               1             0.1 
2  6 -1 0
Curve2ds 148
1 3.1415926535897931 0 0 -1 
1 0 0 0 1 
1 0 -0.34999999999999432 1 0 
1 0 0 0 1 
1 0 -2.9000000000000057 1 0 
1 0 0 0 -1 
1 0 0 0 -1 
1 0 0 1 0 
1 0 -0.34999999999999432 1 0 
1 0 0 1 0 
1 0 -2.9000000000000057 1 0 
8 0 1.5707963267948966
1 3.1415926535897931 0 0 1 
8 0 1.5707963267948966
1 0 0 1 0 
1 1.5707963267948966 0 0 1 
1 1.6000000000000014 2.4500000000000002 -1 0 
8 0 1.5707963267948966
1 0 3.2000000000000028 1 0 
8 0 1.5707963267948966
1 0 0 0 1 
8 0 1.5707963267948966
1 3.1415926535897931 0 0 1 
8 0 1.5707963267948966
1 0 0 1 0 
1 1.5707963267948966 0 0 1 
1 1.6000000000000014 1.9500000000000011 -1 0 
8 0 1.5707963267948966
1 0 0 0 1 
8 0 1.5707963267948966
1 0 3.2000000000000028 1 0 
1 0 0 1 0 
1 0 -0.34999999999999432 1 0 
1 0 0 1 0 
1 0 -2.9000000000000057 1 0 
1 3.1415926535897931 0 0 -1 
1 0 0 0 1 
1 0 -0.34999999999999432 1 0 
1 0 0 0 1 
1 0 -2.9000000000000057 1 0 
8 0 1.5707963267948966
1 0 0 0 1 
8 0 1.5707963267948966
1 0 3.2000000000000028 1 0 
1 0 1.5707963267948966 1 0 
2 1.6000000000000014 0 0 -1 1 0 2.4499999999999993
8 0 1.5707963267948966
1 0 3.2000000000000028 1 0 
8 0 1.5707963267948966
1 0 0 0 1 
1 0 1.5707963267948966 1 0 
2 1.6000000000000014 0 0 -1 1 0 1.9499999999999993
1 1.5707963267948966 0 0 1 
1 -1.6000000000000014 -2.4500000000000011 1 0 
1 0 1.5707963267948966 1 0 
2 -1.6000000000000014 0 0 1 -1 0 2.4499999999999993
2 2.1499999999999986 1.75 1 0 0 -1 0.25
1 6.2831853071795862 0.29999999999999716 -1 0 
8 -0.94999999999999574 3.3500000000000041
1 1.2000000000000028 2 -1 0 
8 -0.94999999999999574 3.3500000000000041
1 0.29999999999999716 1.1999999999999957 0 1 
2 -2.1499999999999986 1.75 -1 0 0 1 0.25
1 0 0.29999999999999716 1 0 
8 -2.75 0.75
1 -2.3999999999999986 -1 0 -1 
8 -2.75 0.75
1 0.29999999999999705 -1 0 1 
2 -2.1499999999999986 -1.75 -1 0 0 1 0.25
1 6.2831853071795862 0.29999999999999716 -1 0 
8 -0.94999999999999574 3.3500000000000041
1 1.2000000000000028 -2 -1 0 
8 -0.94999999999999574 3.3500000000000041
1 0.29999999999999716 1.1999999999999957 0 1 
2 2.1499999999999986 -1.75 1 0 0 -1 0.25
1 0 0.29999999999999716 1 0 
8 -2.75 0.75
1 2.3999999999999986 -1 0 -1 
8 -2.75 0.75
1 0.29999999999999705 -1 0 1 
8 0 1.5707963267948966
1 3.1415926535897931 0 0 1 
8 0 1.5707963267948966
1 0 0 1 0 
1 0 1.5707963267948966 1 0 
2 -1.6000000000000014 0 0 1 -1 0 1.9499999999999993
1 1.5707963267948966 0 0 1 
1 -1.6000000000000014 -1.9500000000000011 1 0 
8 0 1.5707963267948966
1 3.1415926535897931 0 0 1 
8 0 1.5707963267948966
1 0 0 1 0 
1 0 0 0 1 
1 -4.163336342344337e-16 -3.75 1 0 
1 -1.5707963267948966 1.3500000000000001 1 0 
2 0.25 3.75 0 -1 -1 -0 0.25
1 1.5707963267948966 0 0 1 
1 0 0.25 1 0 
1 1.5707963267948966 0 0 1 
1 0 4.5499999999999972 1 0 
1 0 4 1 0 
1 1.3499999999999943 0 0 1 
1 0 0 0 1 
1 -4.163336342344337e-16 -3.75 1 0 
1 -1.5707963267948966 1.3500000000000001 1 0 
2 4.5499999999999972 3.75 0 -1 1 0 0.25
1 4.7999999999999972 0 0 1 
1 1.3499999999999943 -1.498801083243955e-16 0 -1 
1 0 0 0 1 
1 -2.7755575615628914e-17 -0.25 1 0 
1 -4.7123889803846897 1.3500000000000001 1 0 
2 4.5499999999999972 0.25 0 -1 -1 -0 0.25
1 1.5707963267948966 0 0 1 
1 0 4.5499999999999972 1 0 
1 0 0 1 0 
1 1.3499999999999943 0 0 1 
1 1.5707963267948966 0 0 1 
1 0 0.25 1 0 
1 0 0 0 1 
1 -2.7755575615628914e-17 -0.25 1 0 
1 -4.7123889803846897 1.3500000000000001 1 0 
2 0.25 0.25 0 -1 1 0 0.25
1 0 0 0 1 
1 1.3499999999999943 -1.498801083243955e-16 0 -1 
1 0 0 1 0 
1 0 0 0.77272625452523425 0.63473942336001388 
1 1 0.84999999999999964 1 0 
1 0 0 1 0 
1 2.1636335126706538 1.7772703854080369 0.63473942336001388 -0.77272625452523425 
1 3.7999999999999972 0.84999999999999964 0 1 
1 0 0 1 0 
1 3.6235341863986861 -2.4424906541753444e-15 -0.77272625452523425 -0.63473942336001388 
1 3.7999999999999972 3.1500000000000004 -1 0 
1 0 0 1 0 
1 1.4599006737280324 -1.7772703854080394 -0.63473942336001388 0.77272625452523425 
1 1 3.1500000000000004 0 -1 
1 2.7999999999999998 0 0 1 
1 0 0 0 1 
7 0 0  1 2 2  0 1  2.7999999999999998 1 
 0 2 2.6000000000000001 2
1 1.1161509176240638e-15 -1.3819011361059836e-15 0.77794118020372161 0.62833710708762136 
1 0 0.10999999999998522 1 0 
1 0 0 0 1 
1 2.2999999999999998 0 0 1 
1 2.2999999999999998 0 0 1 
1 0 0 0 1 
7 0 0  1 2 2  0 1  2.2999999999999998 1 
 0 2 2.1000000000000001 2
1 2.0226470685296731 1.6336764784278106 0.62833710708762136 -0.77794118020372161 
1 2.0999999999999988 -0.10999999999998522 -1 -1.1102230246251565e-16 
1 2.7999999999999998 0 0 1 
1 0 0 0 1 
7 0 0  1 2 2  0 1  2.7999999999999998 1 
 0 2 2.6000000000000001 2
1 3.3421549934136774 -4.4408920985006262e-15 -0.77794118020372161 -0.62833710708762136 
1 2.5999999999999943 0.10999999999998522 -1 0 
7 0 0  1 2 2  0 1  2.2999999999999998 1 
 0 2 2.1000000000000001 2
1 1.3195079248840058 -1.6336764784278164 -0.62833710708762136 0.77794118020372161 
1 -8.8817841970012523e-16 -0.10999999999998522 1 1.1102230246251565e-16 
1 2.1000000000000005 0 0 -1 
1 0 0 0 1 
1 2.1000000000000005 0 0 1 
1 0 0.50999999999999091 1 0 
1 2.1000000000000005 0 0 -1 
1 2.5999999999999943 0 0 1 
1 0 -0.50999999999999091 1 0 
1 0 2.5999999999999943 1 0 
1 0 0 0 -1 
1 2.5999999999999943 0 0 1 
1 0 0 0 -1 
1 0 0 0 1 
1 0 0 0 1 
1 0 0.50999999999999091 1 0 
1 0 -0.50999999999999091 1 0 
1 0 0 1 0 
Curves 72
1 -42.050000000000004 65.799999999999997 6.2000000000000002 0 1 1.1102230246251565e-16 
1 -42.050000000000004 66.149999999999991 6.2000000000000002 1 0 0 
1 -42.050000000000004 68.700000000000003 6.2000000000000002 1 0 0 
1 -38.850000000000001 65.799999999999997 6.2000000000000002 0 1 1.1102230246251565e-16 
1 -42.050000000000004 65.799999999999997 11.800000000000001 0 1 1.1102230246251565e-16 
2 -42.050000000000004 66.149999999999991 9 -0 -1 -1.1102230246251565e-16 0 -1.1102230246251565e-16 1 -1 0 0 2.7999999999999994
2 -42.050000000000004 68.700000000000003 9 -0 -1 -1.1102230246251565e-16 0 -1.1102230246251565e-16 1 -1 0 0 2.7999999999999994
2 -42.050000000000004 66.149999999999991 6.5500000000000007 -1 -1.3596310734468911e-32 1.2246467991473532e-16 -1.2246467991473532e-16 1.1102230246251565e-16 -1 0 -1 -1.1102230246251565e-16 0.34999999999999998
1 -42.050000000000004 65.799999999999997 6.5499999999999998 1 0 0 
2 -38.850000000000001 66.149999999999991 6.5499999999999998 -1 -0 -0 0 1.1102230246251565e-16 -1 0 -1 -1.1102230246251565e-16 0.34999999999999998
2 -42.050000000000004 68.700000000000003 7.0500000000000007 1 1.3596310734468911e-32 -1.2246467991473532e-16 -1.2246467991473532e-16 1.1102230246251565e-16 -1 0 1 1.1102230246251565e-16 0.84999999999999998
1 -42.050000000000004 69.549999999999997 7.0499999999999998 1 0 0 
2 -38.850000000000001 68.700000000000003 7.0500000000000007 1 -0 0 0 1.1102230246251565e-16 -1 0 1 1.1102230246251565e-16 0.84999999999999998
2 -38.850000000000001 66.149999999999991 9 -0 -1 -1.1102230246251565e-16 0 1.1102230246251565e-16 -1 1 -0 0 2.7999999999999994
2 -38.850000000000001 68.700000000000003 9 -0 -1 -1.1102230246251565e-16 0 1.1102230246251565e-16 -1 1 -0 0 2.7999999999999994
1 -38.850000000000001 65.799999999999997 11.800000000000001 0 1 1.1102230246251565e-16 
1 -38.850000000000001 66.149999999999991 11.800000000000001 -1 0 0 
1 -38.850000000000001 68.700000000000003 11.800000000000001 -1 0 0 
2 -42.050000000000004 66.149999999999991 11.449999999999999 1 0 -0 0 -1.1102230246251565e-16 1 0 -1 -1.1102230246251565e-16 0.34999999999999998
2 -42.050000000000004 65.799999999999997 9 -0 -1 -1.1102230246251565e-16 0 -1.1102230246251565e-16 1 -1 0 0 2.4499999999999993
2 -42.050000000000004 68.700000000000003 10.950000000000001 -1 0 0 0 -1.1102230246251565e-16 1 0 1 1.1102230246251565e-16 0.84999999999999998
2 -42.050000000000004 69.549999999999997 9 -0 -1 -1.1102230246251565e-16 0 -1.1102230246251565e-16 1 -1 0 0 1.9499999999999993
1 -38.850000000000001 65.799999999999997 11.450000000000001 -1 0 0 
2 -38.850000000000001 65.799999999999997 9 -0 -1 -1.1102230246251565e-16 0 1.1102230246251565e-16 -1 1 -0 0 2.4499999999999993
2 -42.600000000000001 65.799999999999997 7.25 0 1 1.1102230246251565e-16 -1 0 0 0 -1.1102230246251565e-16 1 0.25
1 -41.650000000000006 65.799999999999997 7 1 -0 0 
2 -38.300000000000004 65.799999999999997 7.25 0 1 1.1102230246251565e-16 1 0 -0 -0 1.1102230246251565e-16 -1 0.25
1 -38.050000000000004 65.799999999999997 10 0 -1.1102230246251565e-16 1 
2 -38.300000000000004 65.799999999999997 10.75 0 1 1.1102230246251565e-16 1 0 -0 -0 1.1102230246251565e-16 -1 0.25
1 -41.650000000000006 65.799999999999997 11 1 -0 0 
2 -42.600000000000001 65.799999999999997 10.75 0 1 1.1102230246251565e-16 -1 0 0 0 -1.1102230246251565e-16 1 0.25
1 -42.850000000000001 65.799999999999997 10 0 -1.1102230246251565e-16 1 
2 -38.850000000000001 66.149999999999991 11.449999999999999 1 1.3596310734468911e-32 -1.2246467991473532e-16 1.2246467991473532e-16 -1.1102230246251565e-16 1 0 -1 -1.1102230246251565e-16 0.34999999999999998
2 -38.850000000000001 69.549999999999997 9 -0 -1 -1.1102230246251565e-16 0 1.1102230246251565e-16 -1 1 -0 0 1.9499999999999993
1 -38.850000000000001 69.549999999999997 10.950000000000001 -1 0 0 
2 -38.850000000000001 68.700000000000003 10.949999999999999 -1 -1.3596310734468911e-32 1.2246467991473532e-16 1.2246467991473532e-16 -1.1102230246251565e-16 1 0 1 1.1102230246251565e-16 0.84999999999999998
1 -42.850000000000001 65.5 7.25 0 1 1.1102230246251565e-16 
8 1.5707963267948966 3.1415926535897931
2 -42.600000000000001 66.849999999999994 7.25 -0 -1 -1.1102230246251565e-16 0 -1.1102230246251565e-16 1 -1 0 0 0.25
1 -42.600000000000001 65.5 7 0 1 1.1102230246251565e-16 
1 -38.300000000000004 65.5 7 0 1 1.1102230246251565e-16 
1 -42.850000000000001 66.849999999999994 7 1 0 0 
1 -38.050000000000004 65.5 7.25 0 1 1.1102230246251565e-16 
8 1.5707963267948966 3.1415926535897931
2 -38.300000000000004 66.849999999999994 7.25 -0 1 1.1102230246251565e-16 0 -1.1102230246251565e-16 1 1 0 0 0.25
1 -38.050000000000004 66.849999999999994 11 0 1.1102230246251565e-16 -1 
1 -38.050000000000004 65.5 10.75 0 1 1.1102230246251565e-16 
8 4.7123889803846897 6.2831853071795862
2 -38.300000000000004 66.849999999999994 10.75 -0 -1 -1.1102230246251565e-16 0 -1.1102230246251565e-16 1 -1 0 0 0.25
1 -38.300000000000004 65.5 11 0 1 1.1102230246251565e-16 
1 -42.850000000000001 66.849999999999994 11 1 0 0 
1 -42.600000000000001 65.5 11 0 1 1.1102230246251565e-16 
1 -42.850000000000001 65.5 10.75 0 1 1.1102230246251565e-16 
8 4.7123889803846897 6.2831853071795862
2 -42.600000000000001 66.849999999999994 10.75 -0 1 1.1102230246251565e-16 0 -1.1102230246251565e-16 1 1 0 0 0.25
1 -42.850000000000001 66.849999999999994 11 0 1.1102230246251565e-16 -1 
1 -41.850000000000001 66.849999999999994 10.15 1 0 0 
1 -39.050000000000004 66.849999999999994 10.15 0 1.1102230246251565e-16 -1 
1 -39.050000000000004 66.849999999999994 7.8499999999999996 -1 0 0 
1 -41.850000000000001 66.849999999999994 7.8499999999999996 0 -1.1102230246251565e-16 1 
7 0 0  1 2 2  -39.050000000000004 66.849999999999994 10.15  -39.150000000000006 66.949999999999989 10.050000000000001 
 0 2 1 2
1 -41.75 66.949999999999989 9.9499999999999993 1 0 0 
7 0 0  1 2 2  -41.850000000000001 66.849999999999994 10.15  -41.75 66.949999999999989 10.050000000000001 
 0 2 1 2
7 0 0  1 2 2  -39.050000000000004 66.849999999999994 7.8499999999999996  -39.150000000000006 66.949999999999989 7.9500000000000002 
 0 2 1 2
1 -39.150000000000006 66.949999999999989 9.9499999999999993 0 1.1102230246251565e-16 -1 
7 0 0  1 2 2  -41.850000000000001 66.849999999999994 7.8499999999999996  -41.75 66.949999999999989 7.9500000000000002 
 0 2 1 2
1 -39.150000000000006 66.949999999999989 7.8499999999999996 -1 0 0 
1 -41.75 66.949999999999989 7.8499999999999996 0 -1.1102230246251565e-16 1 
1 -41.75 66.840000000000003 10.050000000000001 -0 1 0 
1 -41.75 67.349999999999994 10.050000000000001 1 0 -0 
1 -39.150000000000006 66.840000000000003 10.050000000000001 -0 1 0 
1 -39.150000000000006 67.349999999999994 7.9500000000000002 0 0 1 
1 -39.150000000000006 66.840000000000003 7.9500000000000002 -0 1 0 
1 -41.75 66.840000000000003 7.9500000000000002 -0 1 0 
1 -41.75 67.349999999999994 7.9500000000000002 1 0 -0 
1 -41.75 67.349999999999994 7.9500000000000002 0 0 1 
Polygon3D 0
PolygonOnTriangulations 0
Surfaces 34
1 -42.050000000000004 65.799999999999997 6.2000000000000002 0 1.1102230246251565e-16 -1 1 0 0 0 -1 -1.1102230246251565e-16 
2 -42.050000000000004 65.799999999999997 9 0 -1 -1.1102230246251565e-16 -7.9301644616082612e-17 -1.1102230246251565e-16 1 -1 8.8042511743416498e-33 -7.9301644616082612e-17 2.7999999999999994
2 -42.050000000000004 66.149999999999991 6.5499999999999998 1 0 0 0 1.1102230246251565e-16 -1 0 -1 -1.1102230246251565e-16 0.34999999999999998
2 -42.050000000000004 68.700000000000003 7.0499999999999998 1 0 0 0 1.1102230246251565e-16 -1 -0 1 1.1102230246251565e-16 0.84999999999999998
2 -38.850000000000001 65.799999999999997 9 0 -1 -1.1102230246251565e-16 7.9301644616082612e-17 1.1102230246251565e-16 -1 1 -8.8042511743416498e-33 7.9301644616082612e-17 2.7999999999999994
1 -38.850000000000001 65.799999999999997 11.800000000000001 0 -1.1102230246251565e-16 1 -1 0 0 -0 -1 -1.1102230246251565e-16 
5 -42.050000000000004 66.149999999999991 9 -0 -1 -1.1102230246251565e-16 0 -1.1102230246251565e-16 1 -1 0 0 2.4499999999999993 0.34999999999999998
5 -42.050000000000004 68.700000000000003 9 0 1 1.1102230246251565e-16 0 -1.1102230246251565e-16 1 -1 -0 0 1.9499999999999993 0.84999999999999998
1 -40.450000000000003 65.799999999999997 9 -0 -1 -1.1102230246251565e-16 -1 0 0 0 1.1102230246251565e-16 -1 
5 -38.850000000000001 66.149999999999991 9 -0 -1 -1.1102230246251565e-16 0 1.1102230246251565e-16 -1 1 -0 0 2.4499999999999993 0.34999999999999998
1 -40.450000000000003 69.549999999999997 9 -0 -1 -1.1102230246251565e-16 -1 0 0 0 1.1102230246251565e-16 -1 
5 -38.850000000000001 68.700000000000003 9 0 1 1.1102230246251565e-16 0 1.1102230246251565e-16 -1 1 -0 -0 1.9499999999999993 0.84999999999999998
2 -38.850000000000001 66.149999999999991 11.450000000000001 -1 0 0 0 -1.1102230246251565e-16 1 -0 -1 -1.1102230246251565e-16 0.34999999999999998
2 -38.850000000000001 68.700000000000003 10.950000000000001 -1 0 0 0 -1.1102230246251565e-16 1 0 1 1.1102230246251565e-16 0.84999999999999998
2 -42.600000000000001 65.5 7.25 0 1 1.1102230246251565e-16 -1 0 0 0 1.1102230246251565e-16 -1 0.25
1 -42.850000000000001 65.5 7 0 1.1102230246251565e-16 -1 0 1 1.1102230246251565e-16 1 0 0 
2 -38.300000000000004 65.5 7.25 0 1 1.1102230246251565e-16 1 0 0 0 1.1102230246251565e-16 -1 0.25
1 -38.050000000000004 65.5 11 1 0 0 0 1 1.1102230246251565e-16 0 -1.1102230246251565e-16 1 
2 -38.300000000000004 65.5 10.75 0 1 1.1102230246251565e-16 1 0 0 0 -1.1102230246251565e-16 1 0.25
1 -42.850000000000001 65.5 11 0 1.1102230246251565e-16 -1 0 1 1.1102230246251565e-16 1 0 0 
2 -42.600000000000001 65.5 10.75 0 1 1.1102230246251565e-16 -1 0 0 0 -1.1102230246251565e-16 1 0.25
1 -42.850000000000001 65.5 11 1 0 0 0 1 1.1102230246251565e-16 0 -1.1102230246251565e-16 1 
1 -42.850000000000001 66.849999999999994 11 0 1 1.1102230246251565e-16 1 0 0 0 1.1102230246251565e-16 -1 
9 0 0 0 0 1 1 2 2 2 2 -41.850000000000001 66.849999999999994 10.15  -41.75 66.949999999999989 10.050000000000001  
-39.050000000000004 66.849999999999994 10.15  -39.150000000000006 66.949999999999989 10.050000000000001  

0 2
2.7999999999999998 2

0 2
1 2

1 -41.850000000000001 66.849999999999994 10.15 0 -1 -1.1102230246251565e-16 0.77272625452523425 7.0470232245158235e-17 -0.63473942336001388 0.63473942336001388 -8.5789847950627412e-17 0.77272625452523425 
9 0 0 0 0 1 1 2 2 2 2 -39.050000000000004 66.849999999999994 10.15  -39.150000000000006 66.949999999999989 10.050000000000001  
-39.050000000000004 66.849999999999994 7.8499999999999996  -39.150000000000006 66.949999999999989 7.9500000000000002  

0 2
2.2999999999999998 2

0 2
1 2

9 0 0 0 0 1 1 2 2 2 2 -39.050000000000004 66.849999999999994 7.8499999999999996  -39.150000000000006 66.949999999999989 7.9500000000000002  
-41.850000000000001 66.849999999999994 7.8499999999999996  -41.75 66.949999999999989 7.9500000000000002  

0 2
2.7999999999999998 2

0 2
1 2

9 0 0 0 0 1 1 2 2 2 2 -41.850000000000001 66.849999999999994 7.8499999999999996  -41.75 66.949999999999989 7.9500000000000002  
-41.850000000000001 66.849999999999994 10.15  -41.75 66.949999999999989 10.050000000000001  

0 2
2.2999999999999998 2

0 2
1 2

1 -41.75 66.949999999999989 10.050000000000001 0 -1 -1.1102230246251565e-16 0.77794118020372161 6.9759432351503987e-17 -0.62833710708762136 0.62833710708762136 -8.6368821006623975e-17 0.77794118020372161 
1 -41.75 66.840000000000003 10.050000000000001 0 0 1 1 0 -0 -0 1 0 
1 -39.150000000000006 66.840000000000003 7.9500000000000002 1 0 -0 0 0 1 0 -1 0 
1 -41.75 66.840000000000003 7.9500000000000002 0 0 1 1 0 -0 -0 1 0 
1 -41.75 66.840000000000003 7.9500000000000002 1 0 -0 0 0 1 0 -1 0 
1 -41.75 67.349999999999994 7.9500000000000002 -0 1 0 0 0 1 1 0 -0 
Triangulations 0

TShapes 185
Ve
1.00000000222045e-07
-42.05 66.15 6.2
0 0

0101101
*
Ve
1.00000000222045e-07
-42.05 68.7 6.2
0 0

0101101
*
Ed
 1.00000000222045e-07 1 1 0
1  1 0 0.349999999999994 2.90000000000001
2  1 2 0 0.349999999999994 2.90000000000001
4 G1 1 0 2 0
0

0101000
+185 0 -184 0 *
Ve
1.00000000222045e-07
-38.85 66.15 6.2
0 0

0101101
*
Ed
 1e-07 1 1 0
1  2 0 0 3.2
2  2 3 0 0 3.2
2  3 1 0 0 3.2
4 G1 3 0 1 0
0

0101000
+185 0 -182 0 *
Ve
1.00000000222045e-07
-38.85 68.7 6.2
0 0

0101101
*
Ed
 1e-07 1 1 0
1  3 0 0 3.2
2  4 4 0 0 3.2
2  5 1 0 0 3.2
4 G1 4 0 1 0
0

0101000
+184 0 -180 0 *
Ed
 1.00000000222045e-07 1 1 0
1  4 0 0.349999999999994 2.90000000000001
2  6 5 0 0.349999999999994 2.90000000000001
4 G1 1 0 5 0
0

0101000
+182 0 -180 0 *
Wi

0101100
+183 0 -181 0 +179 0 -178 0 *
Fa
0  1e-07 1 0

0101000
+177 0 *
Ve
1.00000000222045e-07
-42.05 66.15 11.8
0 0

0101101
*
Ve
1.00000000222045e-07
-42.05 68.7 11.8
0 0

0101101
*
Ed
 1.00000000222045e-07 1 1 0
1  5 0 0.349999999999994 2.90000000000001
2  7 2 0 0.349999999999994 2.90000000000001
4 G1 6 0 2 0
0

0101000
+175 0 -174 0 *
Ed
 1e-07 1 1 0
1  6 0 0 3.14159265358979
2  8 7 0 0 3.14159265358979
2  9 2 0 0 3.14159265358979
4 G1 7 0 2 0
0

0101000
+175 0 -185 0 *
Ed
 1e-07 1 1 0
1  7 0 0 3.14159265358979
2  10 8 0 0 3.14159265358979
2  11 2 0 0 3.14159265358979
4 G1 8 0 2 0
0

0101000
+174 0 -184 0 *
Wi

0101100
+173 0 -172 0 +171 0 -183 0 *
Fa
0  1e-07 2 0

0101000
+170 0 *
Ve
1e-07
-42.05 65.8 6.55
0 0

0101101
*
Ed
 1e-07 1 1 0
1  8 0 0 1.5707963267949
2  12 7 0 0 1.5707963267949
2  13 3 0 0 1.5707963267949
4 G1 7 0 3 0
0

0101000
+185 0 -168 0 *
Ve
1e-07
-38.85 65.8 6.55
0 0

0101101
*
Ed
 1e-07 1 1 0
1  9 0 0 3.2
2  14 3 0 0 3.2
2  15 9 0 0 3.2
4 G1 3 0 9 0
0

0101000
+168 0 -166 0 *
Ed
 1e-07 1 1 0
1  10 0 0 1.5707963267949
2  16 3 0 0 1.5707963267949
2  17 10 0 0 1.5707963267949
4 G1 3 0 10 0
0

0101000
+182 0 -166 0 *
Wi

0101100
+167 0 -181 0 +165 0 -164 0 *
Fa
0  0 3 0

0101000
+163 0 *
Ve
1e-07
-42.05 69.55 7.05
0 0

0101101
*
Ed
 1e-07 1 1 0
1  11 0 0 1.5707963267949
2  18 8 0 0 1.5707963267949
2  19 4 0 0 1.5707963267949
4 G1 8 0 4 0
0

0101000
+184 0 -161 0 *
Ve
1e-07
-38.85 69.55 7.05
0 0

0101101
*
Ed
 1e-07 1 1 0
1  12 0 0 3.2
2  20 4 0 0 3.2
2  21 11 0 0 3.2
4 G1 4 0 11 0
0

0101000
+161 0 -159 0 *
Ed
 1e-07 1 1 0
1  13 0 0 1.5707963267949
2  22 12 0 0 1.5707963267949
2  23 4 0 0 1.5707963267949
4 G1 12 0 4 0
0

0101000
+180 0 -159 0 *
Wi

0101100
+160 0 -179 0 +158 0 -157 0 *
Fa
0  0 4 0

0101000
+156 0 *
Ve
1.00000000222045e-07
-38.85 66.15 11.8
0 0

0101101
*
Ed
 1e-07 1 1 0
1  14 0 0 3.14159265358979
2  24 10 0 0 3.14159265358979
2  25 5 0 0 3.14159265358979
4 G1 10 0 5 0
0

0101000
+182 0 -154 0 *
Ve
1.00000000222045e-07
-38.85 68.7 11.8
0 0

0101101
*
Ed
 1e-07 1 1 0
1  15 0 0 3.14159265358979
2  26 12 0 0 3.14159265358979
2  27 5 0 0 3.14159265358979
4 G1 12 0 5 0
0

0101000
+180 0 -152 0 *
Ed
 1.00000000222045e-07 1 1 0
1  16 0 0.349999999999994 2.90000000000001
2  28 5 0 0.349999999999994 2.90000000000001
4 G1 5 0 6 0
0

0101000
+154 0 -152 0 *
Wi

0101100
+178 0 -153 0 +151 0 -150 0 *
Fa
0  1e-07 5 0

0101000
+149 0 *
Ed
 1e-07 1 1 0
1  17 0 0 3.2
2  29 13 0 0 3.2
2  30 6 0 0 3.2
4 G1 13 0 6 0
0

0101000
+154 0 -175 0 *
Ed
 1e-07 1 1 0
1  18 0 0 3.2
2  31 14 0 0 3.2
2  32 6 0 0 3.2
4 G1 14 0 6 0
0

0101000
+152 0 -174 0 *
Wi

0101100
+150 0 -147 0 +146 0 -173 0 *
Fa
0  1e-07 6 0

0101000
+145 0 *
Ve
1e-07
-42.05 65.8 11.45
0 0

0101101
*
Ed
 1e-07 1 1 0
1  19 0 0 1.5707963267949
2  33 7 0 0 1.5707963267949
2  34 13 0 0 1.5707963267949
4 G1 7 0 13 0
0

0101000
+175 0 -143 0 *
Ed
 1e-07 1 1 0
1  20 0 0 3.14159265358979
2  35 7 0 0 3.14159265358979
2  36 9 0 0 3.14159265358979
4 G1 7 0 9 0
0

0101000
+143 0 -168 0 *
Wi

0101100
-142 0 +172 0 -141 0 +167 0 *
Fa
0  0 7 0

0101000
+140 0 *
Ve
1e-07
-42.05 69.55 10.95
0 0

0101101
*
Ed
 1e-07 1 1 0
1  21 0 0 1.5707963267949
2  37 14 0 0 1.5707963267949
2  38 8 0 0 1.5707963267949
4 G1 14 0 8 0
0

0101000
+174 0 -138 0 *
Ed
 1e-07 1 1 0
1  22 0 0 3.14159265358979
2  39 8 0 0 3.14159265358979
2  40 11 0 0 3.14159265358979
4 G1 8 0 11 0
0

0101000
+138 0 -161 0 *
Wi

0101100
-137 0 +171 0 -136 0 +160 0 *
Fa
0  0 8 0

0101000
+135 0 *
Ve
1e-07
-38.85 65.8 11.45
0 0

0101101
*
Ed
 1e-07 1 1 0
1  23 0 0 3.2
2  41 13 0 0 3.2
2  42 9 0 0 3.2
4 G1 13 0 9 0
0

0101000
+133 0 -143 0 *
Ed
 1e-07 1 1 0
1  24 0 0 3.14159265358979
2  43 10 0 0 3.14159265358979
2  44 9 0 0 3.14159265358979
4 G1 10 0 9 0
0

0101000
+166 0 -133 0 *
Wi

0101100
+141 0 +132 0 +165 0 +131 0 *
Ve
1.5e-07
-42.6 65.8 7
0 0

0101101
*
Ve
1.5e-07
-42.85 65.8 7.25
0 0

0101101
*
Ed
 1e-07 1 1 0
1  25 0 4.71238898038469 6.28318530717959
2  45 9 0 4.71238898038469 6.28318530717959
2  46 15 0 4.71238898038469 6.28318530717959
0

0101000
+129 0 -128 0 *
Ve
1.5e-07
-38.3 65.8 7
0 0

0101101
*
Ed
 1.5e-07 1 1 0
1  26 0 -0.949999999999996 3.35
2  47 9 0 -0.949999999999996 3.35
2  48 16 1 -0.949999999999996 3.35
0

0101000
+129 0 -126 0 *
Ve
1.5e-07
-38.05 65.8 7.25
0 0

0101101
*
Ed
 1e-07 1 1 0
1  27 0 0 1.5707963267949
2  49 9 0 0 1.5707963267949
2  50 17 0 0 1.5707963267949
0

0101000
+124 0 -126 0 *
Ve
1.5e-07
-38.05 65.8 10.75
0 0

0101101
*
Ed
 1.5e-07 1 1 0
1  28 0 -2.75 0.75
2  51 9 0 -2.75 0.75
2  52 18 1 -2.75 0.75
0

0101000
+124 0 -122 0 *
Ve
1.5e-07
-38.3 65.8 11
0 0

0101101
*
Ed
 1e-07 1 1 0
1  29 0 4.71238898038469 6.28318530717959
2  53 9 0 4.71238898038469 6.28318530717959
2  54 19 0 4.71238898038469 6.28318530717959
0

0101000
+120 0 -122 0 *
Ve
1.5e-07
-42.6 65.8 11
0 0

0101101
*
Ed
 1.5e-07 1 1 0
1  30 0 -0.949999999999996 3.35
2  55 9 0 -0.949999999999996 3.35
2  56 20 1 -0.949999999999996 3.35
0

0101000
+118 0 -120 0 *
Ve
1.5e-07
-42.85 65.8 10.75
0 0

0101101
*
Ed
 1e-07 1 1 0
1  31 0 0 1.5707963267949
2  57 9 0 0 1.5707963267949
2  58 21 0 0 1.5707963267949
0

0101000
+116 0 -118 0 *
Ed
 1.5e-07 1 1 0
1  32 0 -2.75 0.75
2  59 9 0 -2.75 0.75
2  60 22 1 -2.75 0.75
0

0101000
+128 0 -116 0 *
Wi

0101100
+127 0 -125 0 +123 0 -121 0 +119 0 +117 0 +115 0 +114 0 *
Fa
0  1e-07 9 0

0101000
+130 0 +113 0 *
Ed
 1e-07 1 1 0
1  33 0 0 1.5707963267949
2  61 10 0 0 1.5707963267949
2  62 13 0 0 1.5707963267949
4 G1 10 0 13 0
0

0101000
+154 0 -133 0 *
Wi

0101100
-164 0 +153 0 -131 0 +111 0 *
Fa
0  0 10 0

0101000
+110 0 *
Ve
1e-07
-38.85 69.55 10.95
0 0

0101101
*
Ed
 1e-07 1 1 0
1  34 0 0 3.14159265358979
2  63 12 0 0 3.14159265358979
2  64 11 0 0 3.14159265358979
4 G1 12 0 11 0
0

0101000
+159 0 -108 0 *
Ed
 1e-07 1 1 0
1  35 0 0 3.2
2  65 14 0 0 3.2
2  66 11 0 0 3.2
4 G1 14 0 11 0
0

0101000
+108 0 -138 0 *
Wi

0101100
+107 0 +158 0 +106 0 +136 0 *
Fa
0  1e-07 11 0

0101000
+105 0 *
Ed
 1e-07 1 1 0
1  36 0 0 1.5707963267949
2  67 12 0 0 1.5707963267949
2  68 14 0 0 1.5707963267949
4 G1 12 0 14 0
0

0101000
+152 0 -108 0 *
Wi

0101100
-157 0 +151 0 -107 0 +103 0 *
Fa
0  0 12 0

0101000
+102 0 *
Wi

0101100
+111 0 -147 0 +132 0 -142 0 *
Fa
0  0 13 0

0101000
+100 0 *
Wi

0101100
+103 0 -146 0 +106 0 -137 0 *
Fa
0  0 14 0

0101000
+98 0 *
Ve
1e-07
-42.85 66.85 7.25
0 0

0101101
*
Ed
 1e-07 1 1 0
1  37 0 0.299999999999997 1.35
2  69 15 0 0.299999999999997 1.35
4 G1 22 1 15 0
2  70 22 1 0.299999999999997 1.35
0

0101000
+128 0 -96 0 *
Ve
1e-07
-42.6 66.85 7
0 0

0101101
*
Ed
 1e-07 1 1 0
1  38 0 1.5707963267949 3.14159265358979
2  71 15 0 1.5707963267949 3.14159265358979
2  72 23 1 1.5707963267949 3.14159265358979
0

0101000
+96 0 -94 0 *
Ed
 1e-07 1 1 0
1  39 0 0.299999999999997 1.35
2  73 15 0 0.299999999999997 1.35
4 G1 15 0 16 1
2  74 16 1 0.299999999999997 1.35
0

0101000
+129 0 -94 0 *
Wi

0101100
-95 0 -93 0 +92 0 -127 0 *
Fa
0  1e-07 15 0

0101000
+91 0 *
Ve
1e-07
-38.3 66.85 7
0 0

0101101
*
Ed
 1e-07 1 1 0
1  40 0 0.299999999999997 1.35
2  75 17 0 0.299999999999997 1.35
4 G1 16 1 17 0
2  76 16 1 0.299999999999997 1.35
0

0101000
+126 0 -89 0 *
Ed
 1e-07 1 1 0
1  41 0 0.25 4.55
2  77 23 0 0.25 4.55
2  78 16 0 0.25 4.55
0

0101000
+94 2 -89 2 *
Wi

0101100
-125 0 -88 0 +87 1 +92 0 *
Fa
0  1e-07 16 1

0101000
+86 0 *
Ve
1e-07
-38.05 66.85 7.25
0 0

0101101
*
Ed
 1e-07 1 1 0
1  42 0 0.299999999999997 1.35
2  79 17 0 0.299999999999997 1.35
4 G1 17 0 18 1
2  80 18 1 0.299999999999997 1.35
0

0101000
+124 0 -84 0 *
Ed
 1e-07 1 1 0
1  43 0 1.5707963267949 3.14159265358979
2  81 17 0 1.5707963267949 3.14159265358979
2  82 23 1 1.5707963267949 3.14159265358979
0

0101000
+84 0 -89 0 *
Wi

0101100
-83 0 -82 0 +88 0 +123 0 *
Fa
0  1e-07 17 0

0101000
+81 0 *
Ve
1e-07
-38.05 66.85 10.75
0 0

0101101
*
Ed
 1e-07 1 1 0
1  44 0 0.25 3.75
2  83 23 0 0.25 3.75
2  84 18 0 0.25 3.75
0

0101000
+79 2 -84 2 *
Ed
 1e-07 1 1 0
1  45 0 0.299999999999997 1.35
2  85 19 0 0.299999999999997 1.35
4 G1 19 0 18 1
2  86 18 1 0.299999999999997 1.35
0

0101000
+122 0 -79 0 *
Wi

0101100
-78 1 +83 0 -121 0 -77 0 *
Fa
0  1e-07 18 1

0101000
+76 0 *
Ve
1e-07
-38.3 66.85 11
0 0

0101101
*
Ed
 1e-07 1 1 0
1  46 0 4.71238898038469 6.28318530717959
2  87 19 0 4.71238898038469 6.28318530717959
2  88 23 1 4.71238898038469 6.28318530717959
0

0101000
+79 0 -74 0 *
Ed
 1e-07 1 1 0
1  47 0 0.299999999999997 1.35
2  89 19 0 0.299999999999997 1.35
4 G1 20 1 19 0
2  90 20 1 0.299999999999997 1.35
0

0101000
+120 0 -74 0 *
Wi

0101100
-77 0 -73 0 +72 0 -119 0 *
Fa
0  1e-07 19 0

0101000
+71 0 *
Ve
1e-07
-42.6 66.85 11
0 0

0101101
*
Ed
 1e-07 1 1 0
1  48 0 0.25 4.55
2  91 23 0 0.25 4.55
2  92 20 0 0.25 4.55
0

0101000
+69 2 -74 2 *
Ed
 1e-07 1 1 0
1  49 0 0.299999999999997 1.35
2  93 21 0 0.299999999999997 1.35
4 G1 21 0 20 1
2  94 20 1 0.299999999999997 1.35
0

0101000
+118 0 -69 0 *
Wi

0101100
-117 0 -72 0 +68 1 +67 0 *
Fa
0  1e-07 20 1

0101000
+66 0 *
Ve
1e-07
-42.85 66.85 10.75
0 0

0101101
*
Ed
 1e-07 1 1 0
1  50 0 0.299999999999997 1.35
2  95 21 0 0.299999999999997 1.35
4 G1 22 1 21 0
2  96 22 1 0.299999999999997 1.35
0

0101000
+116 0 -64 0 *
Ed
 1e-07 1 1 0
1  51 0 4.71238898038469 6.28318530717959
2  97 21 0 4.71238898038469 6.28318530717959
2  98 23 1 4.71238898038469 6.28318530717959
0

0101000
+64 0 -69 0 *
Wi

0101100
-63 0 -62 0 +67 0 +115 0 *
Fa
0  1e-07 21 0

0101000
+61 0 *
Ed
 1e-07 1 1 0
1  52 0 0.25 3.75
2  99 23 0 0.25 3.75
2  100 22 0 0.25 3.75
0

0101000
+64 2 -96 2 *
Wi

0101100
-59 1 +95 0 -114 0 -63 0 *
Fa
0  1e-07 22 1

0101000
+58 0 *
Wi

0101100
-59 1 +62 0 -93 0 +68 1 -87 1 -73 0 +82 0 +78 1 *
Ve
1e-07
-41.85 66.85 10.15
0 0

0101101
*
Ve
1e-07
-39.05 66.85 10.15
0 0

0101101
*
Ed
 1e-07 1 1 0
1  53 0 0 2.8
2  101 24 4 0 2.8
2  102 25 4 0 2.8
2  103 23 5 0 2.8
0

0101000
+55 4 -54 4 *
Ve
1e-07
-39.05 66.85 7.85
0 0

0101101
*
Ed
 1e-07 1 1 0
1  54 0 0 2.3
2  104 26 4 0 2.3
2  105 25 4 0 2.3
2  106 23 5 0 2.3
0

0101000
+54 4 -52 4 *
Ve
1e-07
-41.85 66.85 7.85
0 0

0101101
*
Ed
 1e-07 1 1 0
1  55 0 0 2.8
2  107 27 4 0 2.8
2  108 25 4 0 2.8
2  109 23 5 0 2.8
0

0101000
+52 4 -50 4 *
Ed
 1e-07 1 1 0
1  56 0 0 2.3
2  110 28 4 0 2.3
2  111 25 4 0 2.3
2  112 23 5 0 2.3
0

0101000
+50 4 -55 4 *
Wi

0101100
-53 3 -51 3 -49 3 -48 3 *
Fa
0  1e-07 23 1

0101000
+56 0 +47 0 *
Ve
1.00000001776357e-07
-39.15 66.95 10.05
0 0

0101101
*
Ed
 1e-07 1 1 0
1  57 0 0 1
2  113 24 0 0 1
2  114 26 0 0 1
0

0101000
+54 0 -45 0 *
Ve
1.00000001776357e-07
-41.75 66.95 10.05
0 0

0101101
*
Ed
 1.00000001776357e-07 1 1 0
1  58 0 0 2.6
2  115 24 7 0 2.6
2  116 29 7 0 2.6
2  117 30 7 0 2.6
0

0101000
+43 7 -45 7 *
Ed
 1e-07 1 1 0
1  59 0 0 1
2  118 24 0 0 1
2  119 28 0 0 1
0

0101000
+55 0 -43 0 *
Wi

0101000
+53 3 +44 0 -42 6 -41 0 *
Fa
0  1e-07 24 0

0101000
+40 0 *
Ve
1.00000000888178e-07
-39.15 66.95 7.95
0 0

0101101
*
Ed
 1e-07 1 1 0
1  60 0 0 1
2  120 26 0 0 1
2  121 27 0 0 1
0

0101000
+52 0 -38 0 *
Ed
 1e-07 1 1 0
1  61 0 0 2.1
2  122 26 7 0 2.1
2  123 29 7 0 2.1
2  124 31 7 0 2.1
0

0101000
+45 7 -38 7 *
Wi

0101000
+51 3 +37 0 -36 6 -44 0 *
Fa
0  1e-07 26 0

0101000
+35 0 *
Ve
1.00000000888178e-07
-41.75 66.95 7.95
0 0

0101101
*
Ed
 1e-07 1 1 0
1  62 0 0 1
2  125 27 0 0 1
2  126 28 0 0 1
0

0101000
+50 0 -33 0 *
Ed
 1.00000000888178e-07 1 1 0
1  63 0 0 2.6
2  127 27 7 0 2.6
2  128 29 7 0 2.6
2  129 32 7 0 2.6
0

0101000
+38 7 -33 7 *
Wi

0101000
+49 3 +32 0 -31 6 -37 0 *
Fa
0  1e-07 27 0

0101000
+30 0 *
Ed
 1e-07 1 1 0
1  64 0 0 2.1
2  130 28 7 0 2.1
2  131 29 7 0 2.1
2  132 33 7 0 2.1
0

0101000
+33 7 -43 7 *
Wi

0101000
+48 3 +41 0 -28 6 -32 0 *
Fa
0  1e-07 28 0

0101000
+27 0 *
Ve
1e-07
-41.75 67.35 10.05
0 0

0101101
*
Ed
 1e-07 1 1 0
1  65 0 0.109999999999985 0.509999999999991
2  133 33 0 0.109999999999985 0.509999999999991
2  134 30 0 0.109999999999985 0.509999999999991
0

0101000
+43 0 -25 0 *
Ve
1e-07
-39.15 67.35 10.05
0 0

0101101
*
Ed
 1e-07 1 1 0
1  66 0 0 2.59999999999999
2  135 34 0 0 2.59999999999999
2  136 30 0 0 2.59999999999999
0

0101000
-23 0 +25 0 *
Ed
 1e-07 1 1 0
1  67 0 0.109999999999985 0.509999999999991
2  137 31 0 0.109999999999985 0.509999999999991
2  138 30 0 0.109999999999985 0.509999999999991
0

0101000
+45 0 -23 0 *
Wi

0101100
-24 0 -22 0 +21 0 +42 6 *
Fa
0  1e-07 30 0

0101000
+20 0 *
Ve
1e-07
-39.15 67.35 7.95
0 0

0101101
*
Ed
 1e-07 1 1 0
1  68 0 0 2.1
2  139 31 0 0 2.1
2  140 34 0 0 2.1
0

0101000
-23 0 +18 0 *
Ed
 1e-07 1 1 0
1  69 0 0.109999999999985 0.509999999999991
2  141 31 0 0.109999999999985 0.509999999999991
2  142 32 0 0.109999999999985 0.509999999999991
0

0101000
+38 0 -18 0 *
Wi

0101100
-21 0 +17 0 +16 0 +36 6 *
Fa
0  1e-07 31 0

0101000
+15 0 *
Ve
1e-07
-41.75 67.35 7.95
0 0

0101101
*
Ed
 1e-07 1 1 0
1  70 0 0.109999999999985 0.509999999999991
2  143 33 0 0.109999999999985 0.509999999999991
2  144 32 0 0.109999999999985 0.509999999999991
0

0101000
+33 0 -13 0 *
Ed
 1e-07 1 1 0
1  71 0 0 2.59999999999999
2  145 34 0 0 2.59999999999999
2  146 32 0 0 2.59999999999999
0

0101000
-18 0 +13 0 *
Wi

0101100
-12 0 -11 0 +16 0 -31 6 *
Fa
0  1e-07 32 0

0101000
+10 0 *
Ed
 1e-07 1 1 0
1  72 0 0 2.1
2  147 33 0 0 2.1
2  148 34 0 0 2.1
0

0101000
-25 0 +13 0 *
Wi

0101100
-24 0 +8 0 +12 0 -28 6 *
Fa
0  1e-07 33 0

0101000
+7 0 *
Wi

0101100
-11 0 -17 0 +22 0 +8 0 *
Fa
0  1e-07 34 0

0111000
+5 0 *
Sh

0101100
+176 0 +169 0 -162 0 +155 0 +148 0 +144 0 +139 0 -134 0 +112 0 +109 0 
-104 0 -101 0 -99 0 +97 0 +90 0 -85 0 -80 0 -75 0 +70 0 +65 0 
-60 0 +57 0 -46 0 -39 0 -34 0 -29 0 -26 0 -19 0 -14 0 +9 0 
+6 0 -4 0 *
So

0100000
+3 0 *
Co

1100000
+2 0 *

+1 0 