DBRep_DrawableShape

CASCADE Topology V3, (c) Open Cascade
Locations 0
Curve2ds 44
1 0 0.125 1 0 
2 0 0 1 0 -0 1 0.29999999999999999
8 0 6.2831853071795862
1 0 0 1 0 
1 6.2831853071795862 -0 0 1 
1 0 -0 0 1 
1 0 0 1 0 
2 0 0 1 0 -0 1 0.22500000000000001
1 0 0.40000000000000002 1 0 
2 0 0 1 0 -0 1 0.29999999999999999
1 6.2831853071795862 -0 0 1 
1 0 -0 0 1 
1 0 0.125 1 0 
2 0 0 1 0 -0 1 0.29999999999999999
8 0 6.2831853071795862
1 0 0 1 0 
1 6.2831853071795862 -0 0 1 
1 0 -0 0 1 
1 0 0 1 0 
2 0 0 1 0 -0 1 0.22500000000000001
1 0 0.40000000000000002 1 0 
2 0 0 1 0 -0 1 0.29999999999999999
1 6.2831853071795862 -0 0 1 
1 0 -0 0 1 
1 0 0.125 1 0 
2 0 0 1 0 -0 1 0.29999999999999999
8 0 6.2831853071795862
1 0 0 1 0 
1 6.2831853071795862 -0 0 1 
1 0 -0 0 1 
1 0 0 1 0 
2 0 0 1 0 -0 1 0.22500000000000001
1 0 0.40000000000000002 1 0 
2 0 0 1 0 -0 1 0.29999999999999999
1 6.2831853071795862 -0 0 1 
1 0 -0 0 1 
1 0 0.125 1 0 
2 0 0 1 0 -0 1 0.29999999999999999
8 0 6.2831853071795862
1 0 0 1 0 
1 6.2831853071795862 -0 0 1 
1 0 -0 0 1 
1 0 0 1 0 
2 0 0 1 0 -0 1 0.22500000000000001
1 0 0.40000000000000002 1 0 
2 0 0 1 0 -0 1 0.29999999999999999
1 6.2831853071795862 -0 0 1 
1 0 -0 0 1 
Curves 20
2 -41.975000000000001 66.949999999999989 9 0 1 0 0 -0 1 1 0 -0 0.29999999999999999
1 -41.975000000000001 66.849999999999994 9.2249999999999996 -1.4695761589768236e-16 0.80000000000000004 0.59999999999999987 
2 -41.975000000000001 66.849999999999994 9 0 1 0 0 -0 1 1 0 -0 0.22500000000000001
2 -41.975000000000001 67.350000000000009 9 0 1 0 0 -0 1 1 0 -0 0.29999999999999999
1 -41.975000000000001 66.950000000000003 9.3000000000000007 0 1 0 
2 -38.925000000000004 66.949999999999989 9 0 1 0 0 -0 1 1 0 -0 0.29999999999999999
1 -38.925000000000004 66.849999999999994 9.2249999999999996 -1.4695761589768236e-16 0.80000000000000004 0.59999999999999987 
2 -38.925000000000004 66.849999999999994 9 0 1 0 0 -0 1 1 0 -0 0.22500000000000001
2 -38.925000000000004 67.350000000000009 9 0 1 0 0 -0 1 1 0 -0 0.29999999999999999
1 -38.925000000000004 66.950000000000003 9.3000000000000007 0 1 0 
2 -40.450000000000003 66.949999999999989 7.7249999999999996 0 1 0 0 -0 1 1 0 -0 0.29999999999999999
1 -40.450000000000003 66.849999999999994 7.9500000000000011 -1.4695761589768236e-16 0.80000000000000004 0.59999999999999987 
2 -40.450000000000003 66.849999999999994 7.7249999999999996 0 1 0 0 -0 1 1 0 -0 0.22500000000000001
2 -40.450000000000003 67.350000000000009 7.7249999999999996 0 1 0 0 -0 1 1 0 -0 0.29999999999999999
1 -40.450000000000003 66.950000000000003 8.0249999999999986 0 1 0 
2 -40.450000000000003 66.949999999999989 10.275 0 1 0 0 -0 1 1 0 -0 0.29999999999999999
1 -40.450000000000003 66.849999999999994 10.499999999999998 -1.4695761589768236e-16 0.80000000000000004 0.59999999999999987 
2 -40.450000000000003 66.849999999999994 10.275 0 1 0 0 -0 1 1 0 -0 0.22500000000000001
2 -40.450000000000003 67.350000000000009 10.275 0 1 0 0 -0 1 1 0 -0 0.29999999999999999
1 -40.450000000000003 66.950000000000003 10.575000000000001 0 1 0 
Polygon3D 0
PolygonOnTriangulations 0
Surfaces 20
3 -41.975000000000001 66.849999999999994 9 0 1 0 0 -0 1 1 0 -0 0.22500000000000001
0.64350110879328426
1 -41.975000000000001 66.949999999999989 9 0 1 0 0 -0 1 1 0 -0 
2 -41.975000000000001 66.950000000000003 9 0 1 0 0 -0 1 1 0 -0 0.29999999999999999
1 -41.975000000000001 66.849999999999994 9 0 1 0 0 -0 1 1 0 -0 
1 -41.975000000000001 67.350000000000009 9 0 1 0 0 -0 1 1 0 -0 
3 -38.925000000000004 66.849999999999994 9 0 1 0 0 -0 1 1 0 -0 0.22500000000000001
0.64350110879328426
1 -38.925000000000004 66.949999999999989 9 0 1 0 0 -0 1 1 0 -0 
2 -38.925000000000004 66.950000000000003 9 0 1 0 0 -0 1 1 0 -0 0.29999999999999999
1 -38.925000000000004 66.849999999999994 9 0 1 0 0 -0 1 1 0 -0 
1 -38.925000000000004 67.350000000000009 9 0 1 0 0 -0 1 1 0 -0 
3 -40.450000000000003 66.849999999999994 7.7249999999999996 0 1 0 0 -0 1 1 0 -0 0.22500000000000001
0.64350110879328426
1 -40.450000000000003 66.949999999999989 7.7249999999999996 0 1 0 0 -0 1 1 0 -0 
2 -40.450000000000003 66.950000000000003 7.7249999999999996 0 1 0 0 -0 1 1 0 -0 0.29999999999999999
1 -40.450000000000003 66.849999999999994 7.7249999999999996 0 1 0 0 -0 1 1 0 -0 
1 -40.450000000000003 67.350000000000009 7.7249999999999996 0 1 0 0 -0 1 1 0 -0 
3 -40.450000000000003 66.849999999999994 10.275 0 1 0 0 -0 1 1 0 -0 0.22500000000000001
0.64350110879328426
1 -40.450000000000003 66.949999999999989 10.275 0 1 0 0 -0 1 1 0 -0 
2 -40.450000000000003 66.950000000000003 10.275 0 1 0 0 -0 1 1 0 -0 0.29999999999999999
1 -40.450000000000003 66.849999999999994 10.275 0 1 0 0 -0 1 1 0 -0 
1 -40.450000000000003 67.350000000000009 10.275 0 1 0 0 -0 1 1 0 -0 
Triangulations 0

TShapes 73
Ve
1.00000014210855e-07
-41.975 66.95 9.3
0 0

0101101
*
Ed
 1.00000014210855e-07 1 1 0
1  1 0 0 6.28318530717959
2  1 1 0 0 6.28318530717959
2  2 2 0 0 6.28318530717959
2  3 3 0 0 6.28318530717959
0

0101000
+73 0 -73 0 *
Ve
1e-07
-41.975 66.85 9.225
0 0

0101101
*
Ed
 1e-07 1 1 0
1  2 0 0 0.125
3  4 5CN 1 0 0 0.125
0

0101000
+71 0 -73 0 *
Ed
 1e-07 1 1 0
1  3 0 0 6.28318530717959
2  6 1 0 0 6.28318530717959
2  7 4 0 0 6.28318530717959
0

0101000
+71 0 -71 0 *
Wi

0101100
-72 0 +70 0 +69 0 -70 0 *
Fa
0  1e-07 1 0

0101000
+68 0 *
Ve
1e-07
-41.975 67.35 9.3
0 0

0101101
*
Ed
 1e-07 1 1 0
1  4 0 0 6.28318530717959
2  8 3 0 0 6.28318530717959
2  9 5 0 0 6.28318530717959
0

0101000
+66 0 -66 0 *
Ed
 1e-07 1 1 0
1  5 0 0 0.4
3  10 11CN 3 0 0 0.4
0

0101000
+73 0 -66 0 *
Wi

0101100
-65 0 +64 0 +72 0 -64 0 *
Fa
0  1e-07 3 0

0101000
+63 0 *
Wi

0101100
-69 0 *
Fa
0  1e-07 4 0

0111000
-61 0 *
Wi

0101100
+65 0 *
Fa
0  1e-07 5 0

0111000
+59 0 *
Sh

0101100
+67 0 +62 0 -60 0 +58 0 *
So

0100000
+57 0 *
Ve
1.00000014210855e-07
-38.925 66.95 9.3
0 0

0101101
*
Ed
 1.00000014210855e-07 1 1 0
1  6 0 0 6.28318530717959
2  12 6 0 0 6.28318530717959
2  13 7 0 0 6.28318530717959
2  14 8 0 0 6.28318530717959
0

0101000
+55 0 -55 0 *
Ve
1e-07
-38.925 66.85 9.225
0 0

0101101
*
Ed
 1e-07 1 1 0
1  7 0 0 0.125
3  15 16CN 6 0 0 0.125
0

0101000
+53 0 -55 0 *
Ed
 1e-07 1 1 0
1  8 0 0 6.28318530717959
2  17 6 0 0 6.28318530717959
2  18 9 0 0 6.28318530717959
0

0101000
+53 0 -53 0 *
Wi

0101100
-54 0 +52 0 +51 0 -52 0 *
Fa
0  1e-07 6 0

0101000
+50 0 *
Ve
1e-07
-38.925 67.35 9.3
0 0

0101101
*
Ed
 1e-07 1 1 0
1  9 0 0 6.28318530717959
2  19 8 0 0 6.28318530717959
2  20 10 0 0 6.28318530717959
0

0101000
+48 0 -48 0 *
Ed
 1e-07 1 1 0
1  10 0 0 0.4
3  21 22CN 8 0 0 0.4
0

0101000
+55 0 -48 0 *
Wi

0101100
-47 0 +46 0 +54 0 -46 0 *
Fa
0  1e-07 8 0

0101000
+45 0 *
Wi

0101100
-51 0 *
Fa
0  1e-07 9 0

0111000
-43 0 *
Wi

0101100
+47 0 *
Fa
0  1e-07 10 0

0111000
+41 0 *
Sh

0101100
+49 0 +44 0 -42 0 +40 0 *
So

0100000
+39 0 *
Ve
1.00000014238583e-07
-40.45 66.95 8.025
0 0

0101101
*
Ed
 1.00000014238583e-07 1 1 0
1  11 0 0 6.28318530717959
2  23 11 0 0 6.28318530717959
2  24 12 0 0 6.28318530717959
2  25 13 0 0 6.28318530717959
0

0101000
+37 0 -37 0 *
Ve
1e-07
-40.45 66.85 7.95
0 0

0101101
*
Ed
 1e-07 1 1 0
1  12 0 0 0.125
3  26 27CN 11 0 0 0.125
0

0101000
+35 0 -37 0 *
Ed
 1e-07 1 1 0
1  13 0 0 6.28318530717959
2  28 11 0 0 6.28318530717959
2  29 14 0 0 6.28318530717959
0

0101000
+35 0 -35 0 *
Wi

0101100
-36 0 +34 0 +33 0 -34 0 *
Fa
0  1e-07 11 0

0101000
+32 0 *
Ve
1e-07
-40.45 67.35 8.025
0 0

0101101
*
Ed
 1e-07 1 1 0
1  14 0 0 6.28318530717959
2  30 13 0 0 6.28318530717959
2  31 15 0 0 6.28318530717959
0

0101000
+30 0 -30 0 *
Ed
 1e-07 1 1 0
1  15 0 0 0.4
3  32 33CN 13 0 0 0.4
0

0101000
+37 0 -30 0 *
Wi

0101100
-29 0 +28 0 +36 0 -28 0 *
Fa
0  1e-07 13 0

0101000
+27 0 *
Wi

0101100
-33 0 *
Fa
0  1e-07 14 0

0111000
-25 0 *
Wi

0101100
+29 0 *
Fa
0  1e-07 15 0

0111000
+23 0 *
Sh

0101100
+31 0 +26 0 -24 0 +22 0 *
So

0100000
+21 0 *
Ve
1.00000014210855e-07
-40.45 66.95 10.575
0 0

0101101
*
Ed
 1.00000014210855e-07 1 1 0
1  16 0 0 6.28318530717959
2  34 16 0 0 6.28318530717959
2  35 17 0 0 6.28318530717959
2  36 18 0 0 6.28318530717959
0

0101000
+19 0 -19 0 *
Ve
1e-07
-40.45 66.85 10.5
0 0

0101101
*
Ed
 1e-07 1 1 0
1  17 0 0 0.125
3  37 38CN 16 0 0 0.125
0

0101000
+17 0 -19 0 *
Ed
 1e-07 1 1 0
1  18 0 0 6.28318530717959
2  39 16 0 0 6.28318530717959
2  40 19 0 0 6.28318530717959
0

0101000
+17 0 -17 0 *
Wi

0101100
-18 0 +16 0 +15 0 -16 0 *
Fa
0  1e-07 16 0

0101000
+14 0 *
Ve
1e-07
-40.45 67.35 10.575
0 0

0101101
*
Ed
 1e-07 1 1 0
1  19 0 0 6.28318530717959
2  41 18 0 0 6.28318530717959
2  42 20 0 0 6.28318530717959
0

0101000
+12 0 -12 0 *
Ed
 1e-07 1 1 0
1  20 0 0 0.4
3  43 44CN 18 0 0 0.4
0

0101000
+19 0 -12 0 *
Wi

0101100
-11 0 +10 0 +18 0 -10 0 *
Fa
0  1e-07 18 0

0101000
+9 0 *
Wi

0101100
-15 0 *
Fa
0  1e-07 19 0

0111000
-7 0 *
Wi

0101100
+11 0 *
Fa
0  1e-07 20 0

0111000
+5 0 *
Sh

0101100
+13 0 +8 0 -6 0 +4 0 *
So

0100000
+3 0 *
Co

1100000
+56 0 +38 0 +20 0 +2 0 *

+1 0 