DBRep_DrawableShape

CASCADE Topology V3, (c) Open Cascade
Locations 7
1
              1              -0               0              -0 
              0               1               0               0 
             -0               0               1              -0 
2  1 -1 0
1
              1              -0               0              -0 
              0               1               0               0 
             -0               0               1              -0 
2  3 -1 0
2  1 1 3 -1 0
1
              1              -0               0              -0 
              0               1               0               0 
             -0               0               1             0.1 
2  6 -1 0
Curve2ds 212
1 3.1415926535897931 0 0 -1 
1 0 0 0 1 
1 0 -0.34999999999999432 1 0 
1 0 0 0 1 
1 0 -2.9000000000000057 1 0 
1 0 0 0 -1 
1 0 0 1 0 
1 0 -0.34999999999999432 1 0 
1 0 0 1 0 
1 0 -2.9000000000000057 1 0 
1 3.1415926535897931 0 0 -1 
1 0 0 0 1 
1 0 -0.34999999999999432 1 0 
1 0 0 0 1 
1 0 -2.9000000000000057 1 0 
1 0 0 0 -1 
8 0 1.5707963267948966
1 3.1415926535897931 0 0 1 
8 0 1.5707963267948966
1 0 0 1 0 
1 1.5707963267948966 0 0 1 
1 -1.6000000000000014 -1.9500000000000011 1 0 
8 0 1.5707963267948966
1 0 3.2000000000000028 1 0 
8 0 1.5707963267948966
1 0 0 0 1 
1 0 0 1 0 
1 0 -2.9000000000000057 1 0 
1 0 1.5707963267948966 1 0 
2 1.6000000000000014 0 0 -1 1 0 1.9499999999999993
8 0 1.5707963267948966
1 3.1415926535897931 0 0 1 
8 0 1.5707963267948966
1 0 0 1 0 
1 0 1.5707963267948966 1 0 
2 -1.6000000000000014 0 0 1 -1 0 1.9499999999999993
1 1.5707963267948966 0 0 1 
1 1.6000000000000014 1.9500000000000011 -1 0 
8 0 1.5707963267948966
1 3.1415926535897931 0 0 1 
8 0 1.5707963267948966
1 0 0 1 0 
1 1.5707963267948966 0 0 1 
1 -1.6000000000000014 -2.4500000000000011 1 0 
8 0 1.5707963267948966
1 0 0 0 1 
8 0 1.5707963267948966
1 0 3.2000000000000028 1 0 
1 0 0 1 0 
1 0 -0.34999999999999432 1 0 
1 0 1.5707963267948966 1 0 
2 1.6000000000000014 0 0 -1 1 0 2.4499999999999993
8 0 1.5707963267948966
1 3.1415926535897931 0 0 1 
8 0 1.5707963267948966
1 0 0 1 0 
1 1.5707963267948966 0 0 1 
1 1.6000000000000014 2.4500000000000002 -1 0 
1 0 1.5707963267948966 1 0 
2 -1.6000000000000014 0 0 1 -1 0 2.4499999999999993
2 2.1499999999999986 1.75 1 0 0 -1 0.25
1 6.2831853071795862 0.29999999999999716 -1 0 
8 -0.94999999999999574 3.3500000000000041
1 1.2000000000000028 2 -1 0 
8 -0.94999999999999574 3.3500000000000041
1 0.29999999999999716 1.1999999999999957 0 1 
2 -2.1499999999999986 1.75 -1 0 0 1 0.25
1 0 0.29999999999999716 1 0 
8 -2.75 0.75
1 -2.3999999999999986 -1 0 -1 
8 -2.75 0.75
1 0.29999999999999705 -1 0 1 
2 -2.1499999999999986 -1.75 -1 0 0 1 0.25
1 6.2831853071795862 0.29999999999999716 -1 0 
8 -0.94999999999999574 3.3500000000000041
1 1.2000000000000028 -2 -1 0 
8 -0.94999999999999574 3.3500000000000041
1 0.29999999999999716 1.1999999999999957 0 1 
2 2.1499999999999986 -1.75 1 0 0 -1 0.25
1 0 0.29999999999999716 1 0 
8 -2.75 0.75
1 2.3999999999999986 -1 0 -1 
8 -2.75 0.75
1 0.29999999999999705 -1 0 1 
1 0 0 0 1 
1 1.3499999999999943 -1.498801083243955e-16 0 -1 
1 0 0 0 1 
1 -4.163336342344337e-16 -3.75 1 0 
1 0 0 0 1 
1 -2.7755575615628914e-17 -0.25 1 0 
1 -4.7123889803846897 1.3500000000000001 1 0 
2 0.25 0.25 0 -1 1 0 0.25
1 0 0 1 0 
1 1.3499999999999943 0 0 1 
1 -4.7123889803846897 1.3500000000000001 1 0 
2 4.5499999999999972 0.25 0 -1 -1 -0 0.25
1 4.7999999999999972 0 0 1 
1 1.3499999999999943 -1.498801083243955e-16 0 -1 
1 -1.5707963267948966 1.3500000000000001 1 0 
2 4.5499999999999972 3.75 0 -1 1 0 0.25
1 0 4 1 0 
1 1.3499999999999943 0 0 1 
1 -1.5707963267948966 1.3500000000000001 1 0 
2 0.25 3.75 0 -1 -1 -0 0.25
1 0 0 1 0 
1 0 0 0.77272625452523425 0.63473942336001388 
1 1 0.84999999999999964 1 0 
1 0 0 1 0 
1 1.4599006737280324 -1.7772703854080394 -0.63473942336001388 0.77272625452523425 
1 1 3.1500000000000004 0 -1 
1 0 0 1 0 
2 0 0 1 0 -0 1 0.22500000000000001
1 0 0 1 0 
1 3.6235341863986861 -2.4424906541753444e-15 -0.77272625452523425 -0.63473942336001388 
1 3.7999999999999972 3.1500000000000004 -1 0 
1 7.2649506637582419 0 -1 -0 
1 0 0 1 0 
1 2.1636335126706538 1.7772703854080369 0.63473942336001388 -0.77272625452523425 
1 3.7999999999999972 0.84999999999999964 0 1 
1 0 0 1 0 
2 0 0 1 0 -0 1 0.22500000000000001
1 0 0 1 0 
2 0 0 1 0 -0 1 0.22500000000000001
1 0 0.125 1 0 
2 0 0 1 0 -0 1 0.29999999999999999
8 0 6.2831853071795862
1 0 0 1 0 
7 0 0  6 7 2  1.2129171306578206 1.0088559790833511e-10  1.2068750558385686 0.16441726467843282  1.2014684283685297 0.33013233269497488  1.1966889139380457 0.49675713111508685  1.1925473430188953 0.66403974939246413  1.1890693290017196 0.8318158895690505  1.1863047017993547 1 
 0 7 1 7
7 0 0  6 7 2  4.1233580101684275 0  4.0720919207912312 0.020552158072081359  4.0250568346030615 0.041266540108297375  3.9813221449384066 0.062094641320652344  3.9402703780490129 0.083004970279246998  3.9014080122909429 0.10397698619613248  3.8643269014015309 0.125 
 0 7 1 7
7 0 0  6 7 2  1.5870828693423713 1.0000002868263889e-10  1.5931249441191186 0.16441726352069325  1.5985315744514019 0.33013233713050577  1.6033110874625647 0.49675712806165129  1.6074526523884554 0.66403975026293605  1.6109306709804405 0.83181588844230403  1.6136952982013661 1 
 0 7 1 7
7 0 0  6 7 2  2.1598272970111463 0  2.2110933860276156 0.020552157927477523  2.2581284670139747 0.041266542193521223  2.3018631582928868 0.062094640952083113  2.3429149401738378 0.0830049688053697  2.3817772946385491 0.1039769860552892  2.4188584057763856 0.125 
 0 7 1 7
1 0 0.40000000000000002 1 0 
2 0 0 1 0 -0 1 0.29999999999999999
2 2.3250000000000002 1.2999999999999972 1 0 -0 1 0.30000000000000071
8 -6.0000000701165845e-07 0.40000059999999849
1 1.1015686516701493 0.10999999999999943 0 1 
8 -6.0000000701165845e-07 0.40000059999999849
1 3.8643269014032184 0 0 1 
8 -6.0000000701165845e-07 0.40000059999999849
1 1.498431348329845 0.10999999999999943 0 1 
8 -6.0000000701165845e-07 0.40000059999999849
1 2.4188584057763678 0 0 1 
1 2.1000000000000005 0 0 1 
1 0 0.50999999999999091 1 0 
1 2.1000000000000005 0 0 -1 
1 2.5999999999999943 0 0 1 
7 0 0  1 2 2  0 1  2.7999999999999998 1 
 0 2 2.6000000000000001 2
1 1.1161509176240638e-15 -1.3819011361059836e-15 0.77794118020372161 0.62833710708762136 
1 0 0.10999999999998522 1 0 
1 0 -0.50999999999999091 1 0 
1 0 2.5999999999999943 1 0 
8 -6.0000000701165845e-07 0.40000059999999849
1 1.2484313483298424 -0.10999999999999943 0 -1 
8 -6.0000000701165845e-07 0.40000059999999849
1 5.4351232281980977 0 0 1 
7 0 0  1 2 2  0 1  2.2999999999999998 1 
 0 2 2.1000000000000001 2
1 2.0226470685296731 1.6336764784278106 0.62833710708762136 -0.77794118020372161 
1 2.0999999999999988 -0.10999999999998522 -1 -1.1102230246251565e-16 
1 0 0.40000000000000002 1 0 
2 0 0 1 0 -0 1 0.29999999999999999
2 1.0499999999999998 2.8249999999999957 1 0 -0 1 0.30000000000000071
1 0 0.125 1 0 
2 0 0 1 0 -0 1 0.29999999999999999
8 0 6.2831853071795862
1 0 0 1 0 
8 -6.0000000701165845e-07 0.40000059999999849
1 0.85156865167015727 -0.10999999999999943 0 -1 
8 -6.0000000701165845e-07 0.40000059999999849
1 3.9896547325712817 0 0 1 
1 0 0 0 -1 
1 2.5999999999999943 0 0 1 
8 -6.0000000701165845e-07 0.40000059999999849
1 1.4984313483298379 0.10999999999999943 0 1 
8 -6.0000000701165845e-07 0.40000059999999849
1 0.72273424781340567 0 0 1 
8 -6.0000000701165845e-07 0.39999999999999147
1 7.0059195549929916 0 0 1 
1 0 0 0 1 
1 0 0.50999999999999091 1 0 
7 0 0  1 2 2  0 1  2.7999999999999998 1 
 0 2 2.6000000000000001 2
1 3.3421549934136774 -4.4408920985006262e-15 -0.77794118020372161 -0.62833710708762136 
1 2.5999999999999943 0.10999999999998522 -1 0 
1 5.5604510593667023 0.40000000000000002 1 0 
8 -6.0000000701165845e-07 0.40000059999999849
1 1.1015686516701564 0.10999999999999943 0 1 
8 -6.0000000701165845e-07 0.40000059999999849
1 5.5604510593661809 0 0 1 
8 -6.0000000701165845e-07 0.39999999999999147
1 5.5604510593661809 0 0 1 
1 7.005919554992472 0.125 -1 -0 
1 7.005919554992472 0 -1 -0 
1 0 0 0 -1 
1 0 0 0 1 
8 -6.0000000701165845e-07 0.40000059999999849
1 0.85156865167015727 -0.10999999999999943 0 -1 
8 -6.0000000701165845e-07 0.40000059999999849
1 2.2935305746083046 0 0 1 
1 0 -0.50999999999999091 1 0 
1 0 0 1 0 
7 0 0  1 2 2  0 1  2.2999999999999998 1 
 0 2 2.1000000000000001 2
1 1.3195079248840058 -1.6336764784278164 -0.62833710708762136 0.77794118020372161 
1 -8.8817841970012523e-16 -0.10999999999998522 1 1.1102230246251565e-16 
1 0 0.40000000000000002 1 0 
2 0 0 1 0 -0 1 0.29999999999999999
2 1.0499999999999998 -0.22500000000000142 1 0 -0 1 0.30000000000000071
1 0 0.125 1 0 
2 0 0 1 0 -0 1 0.29999999999999999
8 0 6.2831853071795862
1 0 0 1 0 
8 -6.0000000701165845e-07 0.40000059999999849
1 1.2484313483298424 -0.10999999999999943 0 -1 
8 -6.0000000701165845e-07 0.40000059999999849
1 0.84806207898148855 0 0 1 
1 2.1000000000000005 0 0 -1 
1 0 0 0 1 
1 2.7999999999999998 0 0 1 
1 0 0 0 1 
7 0 0  6 7 2  0.96291713065733775 9.9999495564946112e-11  0.95639746242126644 0.16441623182149953  0.95045606655696457 0.33012988517858066  0.94508853544145532 0.4967534432568837  0.94031008427994134 0.66403563327854609  0.9361515765838514 0.8318127644153952  0.93267042802177025 0.9999999999000766 
 0 7 1 7
7 0 0  6 7 2  5.6941543369633134 0  5.642888569635585 0.020552028965078368  5.595853873118104 0.041266235680520062  5.5521194314354041 0.06209418040062685  5.511067671301686 0.083004454134040159  5.4722050280966492 0.10397659556434265  5.4351232281981137 0.125 
 0 7 1 7
7 0 0  6 7 2  1.3370828693426247 1.0016963273795675e-10  1.3436025376250844 0.16441623299155206  1.3495439316112052 0.33012988117396502  1.3549114617604314 0.49675344584652215  1.3596899216853395 0.66403563280783762  1.3638484234408403 0.83181276560838335  1.367329571978229 0.99999999990008237 
 0 7 1 7
7 0 0  6 7 2  3.730623623806073 0  3.7818893914985785 0.020552029111313205  3.8289240910155531 0.041266234069833131  3.8726585362170041 0.06209418017930167  3.9137102755309856 0.083004456164266535  3.9525729329357637 0.10397659571346542  3.989654732571271 0.125 
 0 7 1 7
1 2.2999999999999998 0 0 1 
1 0 0 0 1 
7 0 0  6 7 2  1.2129171306576298 1.0000002868264234e-10  1.2068750558808834 0.16441726352067887  1.201468425548579 0.33013233713054912  1.1966889125374793 0.49675712806158612  1.1925473476115129 0.66403975026298534  1.1890693290195673 0.83181588844229437  1.1863047017986421 1 
 0 7 1 7
7 0 0  6 7 2  0.98176535657864261 0  0.93049926756217682 0.020552157927475705  0.88346418657581127 0.041266542193526871  0.83972949529686114 0.06209464095207326  0.79867771341598992 0.083004968805377694  0.75981535895122532 0.10397698605528803  0.72273424781338591 0.125 
 0 7 1 7
8 0 1
7 0 0  6 7 2  7.2649506637582286 0  7.2136845747417633 0.020552157927475705  7.1666494937553971 0.041266542193526871  7.1229148024764477 0.06209464095207326  7.0818630205955762 0.083004968805377694  7.043000666130812 0.10397698605528803  7.005919554992972 0.125 
 0 7 1 7
7 0 0  6 7 2  1.587082869342372 1.0000002868264234e-10  1.5931249441191191 0.16441726352069522  1.598531574451401 0.33013233713048828  1.6033110874625451 0.49675712806169114  1.6074526523884738 0.66403975026288964  1.6109306709804343 0.83181588844232868  1.613695298201359 1 
 0 7 1 7
7 0 0  6 7 2  5.3014199506009438 0  5.3526860396174145 0.020552157927477756  5.3997211206037665 0.041266542193520606  5.4434558118827479 0.062094640952082072  5.4845075937635785 0.083004968805367466  5.5233699482283685 0.10397698605529231  5.5604510593662004 0.125 
 0 7 1 7
8 0 1
7 0 0  6 7 2  5.3014199506009438 0  5.3526860396174145 0.020552157927477756  5.3997211206037665 0.041266542193520606  5.4434558118827479 0.062094640952082072  5.4845075937635785 0.083004968805367466  5.5233699482283685 0.10397698605529231  5.5604510593662004 0.125 
 0 7 1 7
1 2.7999999999999998 0 0 1 
1 0 0 0 1 
7 0 0  6 7 2  0.96291713065733775 9.9999495564946112e-11  0.95639746242126789 0.16441623182146245  0.95045606655695969 0.33012988517867953  0.94508853544146243 0.49675344325677467  0.94031008427993457 0.66403563327860193  0.93615157658385162 0.83181276441538543  0.93267042802177025 0.9999999999000766 
 0 7 1 7
7 0 0  6 7 2  2.5525616833735199 0  2.501295916045803 0.020552028965073736  2.454261219528294 0.041266235680531942  2.4105267778456212 0.062094180400615095  2.3694750177118946 0.083004454134046154  2.3306123745068588 0.10397659556434143  2.293530574608321 0.125 
 0 7 1 7
7 0 0  6 7 2  1.3370828693426631 9.999230131699448e-11  1.3436025375787326 0.16441623182144416  1.3495439334430346 0.33012988517872577  1.3549114645585421 0.49675344325668197  1.3596899157200637 0.66403563327869097  1.3638484234161468 0.83181276441535379  1.3673295719782288 0.99999999990008237 
 0 7 1 7
7 0 0  6 7 2  0.58903097021626671 0  0.6402967375439802 0.020552028965072341  0.68733143406153263 0.041266235680532767  0.73106587574413284 0.06209418040060781  0.77211763587792248 0.08300445413405598  0.81098027908293258 0.10397659556433671  0.84806207898147823 0.125 
 0 7 1 7
1 0 0 0 1 
1 2.2999999999999998 0 0 1 
1 1.5707963267948966 0 0 1 
1 0 0.25 1 0 
1 1.5707963267948966 0 0 1 
1 0 4.5499999999999972 1 0 
1 0 0 0 1 
1 -2.7755575615628914e-17 -0.25 1 0 
1 0 0 0 1 
1 -4.163336342344337e-16 -3.75 1 0 
1 1.5707963267948966 0 0 1 
1 0 4.5499999999999972 1 0 
1 1.5707963267948966 0 0 1 
1 0 0.25 1 0 
8 0 1.5707963267948966
1 0 0 0 1 
8 0 1.5707963267948966
1 0 3.2000000000000028 1 0 
8 0 1.5707963267948966
1 0 3.2000000000000028 1 0 
8 0 1.5707963267948966
1 0 0 0 1 
Curves 100
1 -42.050000000000004 65.799999999999997 6.2000000000000002 0 1 1.1102230246251565e-16 
1 -42.050000000000004 66.149999999999991 6.2000000000000002 1 0 0 
1 -42.050000000000004 68.700000000000003 6.2000000000000002 1 0 0 
1 -38.850000000000001 65.799999999999997 6.2000000000000002 0 1 1.1102230246251565e-16 
2 -38.850000000000001 66.149999999999991 9 -0 -1 -1.1102230246251565e-16 0 1.1102230246251565e-16 -1 1 -0 0 2.7999999999999994
2 -38.850000000000001 68.700000000000003 9 -0 -1 -1.1102230246251565e-16 0 1.1102230246251565e-16 -1 1 -0 0 2.7999999999999994
1 -38.850000000000001 65.799999999999997 11.800000000000001 0 1 1.1102230246251565e-16 
1 -38.850000000000001 66.149999999999991 11.800000000000001 -1 0 0 
1 -38.850000000000001 68.700000000000003 11.800000000000001 -1 0 0 
1 -42.050000000000004 65.799999999999997 11.800000000000001 0 1 1.1102230246251565e-16 
2 -38.850000000000001 68.700000000000003 10.949999999999999 -1 -1.3596310734468911e-32 1.2246467991473532e-16 1.2246467991473532e-16 -1.1102230246251565e-16 1 0 1 1.1102230246251565e-16 0.84999999999999998
1 -38.850000000000001 69.549999999999997 10.950000000000001 -1 0 0 
2 -42.050000000000004 68.700000000000003 10.950000000000001 -1 0 0 0 -1.1102230246251565e-16 1 0 1 1.1102230246251565e-16 0.84999999999999998
2 -42.050000000000004 68.700000000000003 9 -0 -1 -1.1102230246251565e-16 0 -1.1102230246251565e-16 1 -1 0 0 2.7999999999999994
2 -42.050000000000004 69.549999999999997 9 -0 -1 -1.1102230246251565e-16 0 -1.1102230246251565e-16 1 -1 0 0 1.9499999999999993
2 -42.050000000000004 68.700000000000003 7.0500000000000007 1 1.3596310734468911e-32 -1.2246467991473532e-16 -1.2246467991473532e-16 1.1102230246251565e-16 -1 0 1 1.1102230246251565e-16 0.84999999999999998
2 -38.850000000000001 69.549999999999997 9 -0 -1 -1.1102230246251565e-16 0 1.1102230246251565e-16 -1 1 -0 0 1.9499999999999993
1 -42.050000000000004 69.549999999999997 7.0499999999999998 1 0 0 
2 -38.850000000000001 66.149999999999991 11.449999999999999 1 1.3596310734468911e-32 -1.2246467991473532e-16 1.2246467991473532e-16 -1.1102230246251565e-16 1 0 -1 -1.1102230246251565e-16 0.34999999999999998
1 -38.850000000000001 65.799999999999997 11.450000000000001 -1 0 0 
2 -42.050000000000004 66.149999999999991 11.449999999999999 1 0 -0 0 -1.1102230246251565e-16 1 0 -1 -1.1102230246251565e-16 0.34999999999999998
2 -42.050000000000004 66.149999999999991 9 -0 -1 -1.1102230246251565e-16 0 -1.1102230246251565e-16 1 -1 0 0 2.7999999999999994
2 -42.050000000000004 65.799999999999997 9 -0 -1 -1.1102230246251565e-16 0 -1.1102230246251565e-16 1 -1 0 0 2.4499999999999993
2 -42.050000000000004 66.149999999999991 6.5500000000000007 -1 -1.3596310734468911e-32 1.2246467991473532e-16 -1.2246467991473532e-16 1.1102230246251565e-16 -1 0 -1 -1.1102230246251565e-16 0.34999999999999998
1 -42.050000000000004 65.799999999999997 6.5499999999999998 1 0 0 
2 -38.850000000000001 65.799999999999997 9 -0 -1 -1.1102230246251565e-16 0 1.1102230246251565e-16 -1 1 -0 0 2.4499999999999993
2 -42.600000000000001 65.799999999999997 7.25 0 1 1.1102230246251565e-16 -1 0 0 0 -1.1102230246251565e-16 1 0.25
1 -41.650000000000006 65.799999999999997 7 1 -0 0 
2 -38.300000000000004 65.799999999999997 7.25 0 1 1.1102230246251565e-16 1 0 -0 -0 1.1102230246251565e-16 -1 0.25
1 -38.050000000000004 65.799999999999997 10 0 -1.1102230246251565e-16 1 
2 -38.300000000000004 65.799999999999997 10.75 0 1 1.1102230246251565e-16 1 0 -0 -0 1.1102230246251565e-16 -1 0.25
1 -41.650000000000006 65.799999999999997 11 1 -0 0 
2 -42.600000000000001 65.799999999999997 10.75 0 1 1.1102230246251565e-16 -1 0 0 0 -1.1102230246251565e-16 1 0.25
1 -42.850000000000001 65.799999999999997 10 0 -1.1102230246251565e-16 1 
1 -42.850000000000001 66.849999999999994 11 0 1.1102230246251565e-16 -1 
1 -42.850000000000001 65.5 7.25 0 1 1.1102230246251565e-16 
1 -42.850000000000001 65.5 10.75 0 1 1.1102230246251565e-16 
8 4.7123889803846897 6.2831853071795862
2 -42.600000000000001 66.849999999999994 10.75 -0 1 1.1102230246251565e-16 0 -1.1102230246251565e-16 1 1 0 0 0.25
1 -42.850000000000001 66.849999999999994 11 1 0 0 
8 4.7123889803846897 6.2831853071795862
2 -38.300000000000004 66.849999999999994 10.75 -0 -1 -1.1102230246251565e-16 0 -1.1102230246251565e-16 1 -1 0 0 0.25
1 -38.050000000000004 66.849999999999994 11 0 1.1102230246251565e-16 -1 
8 1.5707963267948966 3.1415926535897931
2 -38.300000000000004 66.849999999999994 7.25 -0 1 1.1102230246251565e-16 0 -1.1102230246251565e-16 1 1 0 0 0.25
1 -42.850000000000001 66.849999999999994 7 1 0 0 
8 1.5707963267948966 3.1415926535897931
2 -42.600000000000001 66.849999999999994 7.25 -0 -1 -1.1102230246251565e-16 0 -1.1102230246251565e-16 1 -1 0 0 0.25
1 -41.850000000000001 66.849999999999994 10.15 1 0 0 
1 -41.850000000000001 66.849999999999994 7.8499999999999996 0 -1.1102230246251565e-16 1 
2 -41.975000000000001 66.849999999999994 9 0 1 0 0 -0 1 1 0 -0 0.22500000000000001
1 -39.050000000000004 66.849999999999994 7.8499999999999996 -1 0 0 
8 0 1.9635307131573119
2 -40.450000000000003 66.849999999999994 7.7249999999999996 0 -1 0 0.83147941928311653 0 0.55555555555552794 -0.55555555555552794 0 0.83147941928311653 0.22500000000000001
1 -39.050000000000004 66.849999999999994 10.15 0 1.1102230246251565e-16 -1 
2 -38.925000000000004 66.849999999999994 9 0 1 0 0 -0 1 1 0 -0 0.22500000000000001
2 -40.450000000000003 66.849999999999994 10.275 0 1 0 0 -0 1 1 0 -0 0.22500000000000001
2 -40.450000000000003 66.949999999999989 10.275 0 1 0 0 -0 1 1 0 -0 0.29999999999999999
7 0 0  6 7 2  -40.637082869338698 66.849999999999994 10.150000000000002  -40.640927826041725 66.866441726457751 10.133558273542247  -40.643949696449852 66.883013233311445 10.116986766688544  -40.646193031595637 66.89967571306677 10.100324286933231  -40.64768297676801 66.916403974957348 10.083596025042636  -40.648431348329204 66.933181588956899 10.066818411043096  -40.648431348329176 66.949999999999989 10.050000000000001 
 0 7 1 7
7 0 0  6 7 2  -40.2629171306613 66.849999999999994 10.150000000000006  -40.259072173985324 66.86644172634206 10.133558273657936  -40.256050300673721 66.883013233754625 10.116986766245345  -40.253806967376882 66.89967571276182 10.100324287238198  -40.252317027440178 66.916403975044247 10.083596024955741  -40.251568651670162 66.933181588844221 10.06681841115577  -40.251568651670162 66.949999999999989 10.050000000000001 
 0 7 1 7
2 -40.450000000000003 67.350000000000009 10.275 0 1 0 0 -0 1 1 0 -0 0.29999999999999999
1 -40.648431348329851 66.950000000000003 10.050000000000001 0 1 0 
1 -40.251568651670155 66.950000000000003 10.050000000000001 0 1 0 
1 -41.75 67.349999999999994 10.050000000000001 1 0 -0 
1 -39.150000000000006 66.840000000000003 10.050000000000001 -0 1 0 
1 -41.75 66.949999999999989 9.9499999999999993 1 0 0 
1 -39.150000000000006 67.349999999999994 7.9500000000000002 0 0 1 
1 -39.150000000000006 66.950000000000003 9.1984313483298425 0 1 0 
1 -39.150000000000006 66.949999999999989 9.9499999999999993 0 1.1102230246251565e-16 -1 
2 -38.925000000000004 67.350000000000009 9 0 1 0 0 -0 1 1 0 -0 0.29999999999999999
2 -38.925000000000004 66.949999999999989 9 0 1 0 0 -0 1 1 0 -0 0.29999999999999999
1 -39.150000000000006 66.950000000000003 8.8015686516701575 0 1 0 
1 -39.150000000000006 66.840000000000003 7.9500000000000002 -0 1 0 
1 -40.251568651670162 66.950000000000003 7.9500000000000002 0 1 0 
1 -41.75 67.349999999999994 7.9500000000000002 1 0 -0 
1 -39.150000000000006 66.949999999999989 7.8499999999999996 -1 0 0 
8 0 1.4454684956257655
2 -40.450000000000003 67.350000000000009 7.7249999999999996 -7.1615976179282027e-14 1 0 -0.66143782776574878 -4.7369515717347909e-14 0.75000000000035183 0.75000000000035183 5.3711982134486719e-14 0.66143782776574878 0.29999999999999999
1 -40.648431348329844 66.950000000000003 7.9500000000000002 0 1 0 
8 0 1.4454684956257715
2 -40.450000000000003 66.949999999999989 7.7249999999999996 0 -1 0 0.66143782776575033 0 0.7500000000003505 -0.7500000000003505 0 0.66143782776575033 0.29999999999999999
1 -41.75 66.840000000000003 7.9500000000000002 -0 1 0 
1 -41.75 66.950000000000003 8.8015686516701575 0 1 0 
1 -41.75 67.349999999999994 7.9500000000000002 0 0 1 
1 -41.75 66.949999999999989 7.8499999999999996 0 -1.1102230246251565e-16 1 
2 -41.975000000000001 67.350000000000009 9 0 1 0 0 -0 1 1 0 -0 0.29999999999999999
2 -41.975000000000001 66.949999999999989 9 0 1 0 0 -0 1 1 0 -0 0.29999999999999999
1 -41.75 66.950000000000003 9.1984313483298425 0 1 0 
1 -41.75 66.840000000000003 10.050000000000001 -0 1 0 
7 0 0  1 2 2  -39.050000000000004 66.849999999999994 10.15  -39.150000000000006 66.949999999999989 10.050000000000001 
 0 2 1 2
7 0 0  6 7 2  -39.050000000000004 66.849999999999994 9.1870828693386972  -39.066441623172153 66.86644162317215 9.1909278018880194  -39.083012988544226 66.883012988544195 9.193949652689378  -39.099675344320744 66.899675344320755 9.1961929848422876  -39.116403563307102 66.916403563307057 9.1976829447709179  -39.133181276451538 66.933181276451521 9.1984313483296649  -39.150000000000006 66.949999999999989 9.1984313483298479 
 0 7 1 7
7 0 0  6 7 2  -39.050000000000004 66.849999999999994 8.8129171306613046  -39.066441623289144 66.866441623289134 8.8090721980846247  -39.083012988143835 66.883012988143804 8.8060503492575517  -39.09967534457963 66.899675344579634 8.8038070174127121  -39.116403563260057 66.916403563260019 8.8023170498271437  -39.133181276570838 66.933181276570821 8.8015686516703386  -39.150000000000006 66.949999999999989 8.8015686516701557 
 0 7 1 7
7 0 0  1 2 2  -39.050000000000004 66.849999999999994 7.8499999999999996  -39.150000000000006 66.949999999999989 7.9500000000000002 
 0 2 1 2
7 0 0  6 7 2  -40.262917130661307 66.849999999999994 7.8499999999999961  -40.259072173985331 66.86644172634206 7.8664417263420638  -40.256050300673685 66.883013233754639 7.8830132337546619  -40.253806967376946 66.899675712761805 7.8996757127617929  -40.252317027440142 66.916403975044247 7.9164039750442674  -40.251568651670169 66.933181588844221 7.9331815888442305  -40.251568651670169 66.949999999999989 7.9500000000000011 
 0 7 1 7
7 0 0  6 7 2  -40.637082869338705 66.849999999999994 7.8499999999999961  -40.640927826014682 66.86644172634206 7.8664417263420656  -40.643949699326292 66.883013233754625 7.8830132337546566  -40.646193032623096 66.89967571276182 7.8996757127618027  -40.647682972559849 66.916403975044247 7.9164039750442585  -40.648431348329837 66.933181588844221 7.9331815888442341  -40.648431348329837 66.949999999999989 7.9500000000000011 
 0 7 1 7
7 0 0  1 2 2  -41.850000000000001 66.849999999999994 7.8499999999999996  -41.75 66.949999999999989 7.9500000000000002 
 0 2 1 2
7 0 0  6 7 2  -41.850000000000001 66.849999999999994 8.8129171306613028  -41.833558376827852 66.866441623172136 8.8090721981119824  -41.816987011455772 66.883012988544195 8.8060503473106166  -41.800324655679269 66.899675344320741 8.8038070151577177  -41.783596436692903 66.916403563307057 8.8023170552290768  -41.766818723548468 66.933181276451521 8.8015686516703351  -41.75 66.949999999999989 8.8015686516701521 
 0 7 1 7
7 0 0  6 7 2  -41.850000000000001 66.849999999999994 9.1870828693386972  -41.833558376827852 66.866441623172136 9.1909278018880176  -41.816987011455765 66.883012988544195 9.1939496526893851  -41.800324655679283 66.899675344320741 9.1961929848422734  -41.783596436692889 66.916403563307071 9.1976829447709321  -41.766818723548475 66.933181276451521 9.1984313483296614  -41.75 66.949999999999989 9.1984313483298443 
 0 7 1 7
7 0 0  1 2 2  -41.850000000000001 66.849999999999994 10.15  -41.75 66.949999999999989 10.050000000000001 
 0 2 1 2
1 -42.600000000000001 65.5 11 0 1 1.1102230246251565e-16 
1 -38.300000000000004 65.5 11 0 1 1.1102230246251565e-16 
1 -38.050000000000004 65.5 10.75 0 1 1.1102230246251565e-16 
1 -38.050000000000004 65.5 7.25 0 1 1.1102230246251565e-16 
1 -38.300000000000004 65.5 7 0 1 1.1102230246251565e-16 
1 -42.600000000000001 65.5 7 0 1 1.1102230246251565e-16 
2 -38.850000000000001 68.700000000000003 7.0500000000000007 1 -0 0 0 1.1102230246251565e-16 -1 0 1 1.1102230246251565e-16 0.84999999999999998
2 -38.850000000000001 66.149999999999991 6.5499999999999998 -1 -0 -0 0 1.1102230246251565e-16 -1 0 -1 -1.1102230246251565e-16 0.34999999999999998
Polygon3D 0
PolygonOnTriangulations 0
Surfaces 54
1 -42.050000000000004 65.799999999999997 6.2000000000000002 0 1.1102230246251565e-16 -1 1 0 0 0 -1 -1.1102230246251565e-16 
2 -42.050000000000004 65.799999999999997 9 0 -1 -1.1102230246251565e-16 -7.9301644616082612e-17 -1.1102230246251565e-16 1 -1 8.8042511743416498e-33 -7.9301644616082612e-17 2.7999999999999994
2 -42.050000000000004 66.149999999999991 6.5499999999999998 1 0 0 0 1.1102230246251565e-16 -1 0 -1 -1.1102230246251565e-16 0.34999999999999998
2 -42.050000000000004 68.700000000000003 7.0499999999999998 1 0 0 0 1.1102230246251565e-16 -1 -0 1 1.1102230246251565e-16 0.84999999999999998
2 -38.850000000000001 65.799999999999997 9 0 -1 -1.1102230246251565e-16 7.9301644616082612e-17 1.1102230246251565e-16 -1 1 -8.8042511743416498e-33 7.9301644616082612e-17 2.7999999999999994
5 -38.850000000000001 66.149999999999991 9 -0 -1 -1.1102230246251565e-16 0 1.1102230246251565e-16 -1 1 -0 0 2.4499999999999993 0.34999999999999998
5 -38.850000000000001 68.700000000000003 9 0 1 1.1102230246251565e-16 0 1.1102230246251565e-16 -1 1 -0 -0 1.9499999999999993 0.84999999999999998
1 -38.850000000000001 65.799999999999997 11.800000000000001 0 -1.1102230246251565e-16 1 -1 0 0 -0 -1 -1.1102230246251565e-16 
2 -38.850000000000001 66.149999999999991 11.450000000000001 -1 0 0 0 -1.1102230246251565e-16 1 -0 -1 -1.1102230246251565e-16 0.34999999999999998
2 -38.850000000000001 68.700000000000003 10.950000000000001 -1 0 0 0 -1.1102230246251565e-16 1 0 1 1.1102230246251565e-16 0.84999999999999998
1 -40.450000000000003 69.549999999999997 9 -0 -1 -1.1102230246251565e-16 -1 0 0 0 1.1102230246251565e-16 -1 
5 -42.050000000000004 68.700000000000003 9 0 1 1.1102230246251565e-16 0 -1.1102230246251565e-16 1 -1 -0 0 1.9499999999999993 0.84999999999999998
1 -40.450000000000003 65.799999999999997 9 -0 -1 -1.1102230246251565e-16 -1 0 0 0 1.1102230246251565e-16 -1 
5 -42.050000000000004 66.149999999999991 9 -0 -1 -1.1102230246251565e-16 0 -1.1102230246251565e-16 1 -1 0 0 2.4499999999999993 0.34999999999999998
2 -42.600000000000001 65.5 7.25 0 1 1.1102230246251565e-16 -1 0 0 0 1.1102230246251565e-16 -1 0.25
1 -42.850000000000001 65.5 7 0 1.1102230246251565e-16 -1 0 1 1.1102230246251565e-16 1 0 0 
2 -38.300000000000004 65.5 7.25 0 1 1.1102230246251565e-16 1 0 0 0 1.1102230246251565e-16 -1 0.25
1 -38.050000000000004 65.5 11 1 0 0 0 1 1.1102230246251565e-16 0 -1.1102230246251565e-16 1 
2 -38.300000000000004 65.5 10.75 0 1 1.1102230246251565e-16 1 0 0 0 -1.1102230246251565e-16 1 0.25
1 -42.850000000000001 65.5 11 0 1.1102230246251565e-16 -1 0 1 1.1102230246251565e-16 1 0 0 
2 -42.600000000000001 65.5 10.75 0 1 1.1102230246251565e-16 -1 0 0 0 -1.1102230246251565e-16 1 0.25
1 -42.850000000000001 65.5 11 1 0 0 0 1 1.1102230246251565e-16 0 -1.1102230246251565e-16 1 
1 -42.850000000000001 66.849999999999994 11 0 1 1.1102230246251565e-16 1 0 0 0 1.1102230246251565e-16 -1 
1 -42.850000000000001 66.849999999999994 11 0 1 1.1102230246251565e-16 1 0 0 0 1.1102230246251565e-16 -1 
9 0 0 0 0 1 1 2 2 2 2 -41.850000000000001 66.849999999999994 10.15  -41.75 66.949999999999989 10.050000000000001  
-39.050000000000004 66.849999999999994 10.15  -39.150000000000006 66.949999999999989 10.050000000000001  

0 2
2.7999999999999998 2

0 2
1 2

1 -41.850000000000001 66.849999999999994 10.15 0 -1 -1.1102230246251565e-16 0.77272625452523425 7.0470232245158235e-17 -0.63473942336001388 0.63473942336001388 -8.5789847950627412e-17 0.77272625452523425 
9 0 0 0 0 1 1 2 2 2 2 -41.850000000000001 66.849999999999994 7.8499999999999996  -41.75 66.949999999999989 7.9500000000000002  
-41.850000000000001 66.849999999999994 10.15  -41.75 66.949999999999989 10.050000000000001  

0 2
2.2999999999999998 2

0 2
1 2

3 -41.975000000000001 66.849999999999994 9 0 1 0 0 -0 1 1 0 -0 0.22500000000000001
0.64350110879328426
1 -41.975000000000001 66.849999999999994 9 0 1 0 0 -0 1 1 0 -0 
9 0 0 0 0 1 1 2 2 2 2 -39.050000000000004 66.849999999999994 7.8499999999999996  -39.150000000000006 66.949999999999989 7.9500000000000002  
-41.850000000000001 66.849999999999994 7.8499999999999996  -41.75 66.949999999999989 7.9500000000000002  

0 2
2.7999999999999998 2

0 2
1 2

10 3.1415926535897931 9.4247779607693793 -2e+100 2e+100
3 -40.450000000000003 66.849999999999994 7.7249999999999996 0 1 0 0 -0 1 1 0 -0 0.22500000000000001
0.64350110879328426
9 0 0 0 0 1 1 2 2 2 2 -39.050000000000004 66.849999999999994 10.15  -39.150000000000006 66.949999999999989 10.050000000000001  
-39.050000000000004 66.849999999999994 7.8499999999999996  -39.150000000000006 66.949999999999989 7.9500000000000002  

0 2
2.2999999999999998 2

0 2
1 2

3 -38.925000000000004 66.849999999999994 9 0 1 0 0 -0 1 1 0 -0 0.22500000000000001
0.64350110879328426
1 -38.925000000000004 66.849999999999994 9 0 1 0 0 -0 1 1 0 -0 
3 -40.450000000000003 66.849999999999994 10.275 0 1 0 0 -0 1 1 0 -0 0.22500000000000001
0.64350110879328426
1 -40.450000000000003 66.849999999999994 10.275 0 1 0 0 -0 1 1 0 -0 
1 -40.450000000000003 66.949999999999989 10.275 0 1 0 0 -0 1 1 0 -0 
2 -40.450000000000003 66.950000000000003 10.275 0 1 0 0 -0 1 1 0 -0 0.29999999999999999
1 -40.450000000000003 67.350000000000009 10.275 0 1 0 0 -0 1 1 0 -0 
1 -41.75 67.349999999999994 7.9500000000000002 -0 1 0 0 0 1 1 0 -0 
1 -41.75 66.840000000000003 10.050000000000001 0 0 1 1 0 -0 -0 1 0 
1 -39.150000000000006 66.840000000000003 7.9500000000000002 1 0 -0 0 0 1 0 -1 0 
1 -41.75 66.949999999999989 10.050000000000001 0 -1 -1.1102230246251565e-16 0.77794118020372161 6.9759432351503987e-17 -0.62833710708762136 0.62833710708762136 -8.6368821006623975e-17 0.77794118020372161 
2 -38.925000000000004 66.950000000000003 9 0 1 0 0 -0 1 1 0 -0 0.29999999999999999
1 -38.925000000000004 67.350000000000009 9 0 1 0 0 -0 1 1 0 -0 
1 -38.925000000000004 66.949999999999989 9 0 1 0 0 -0 1 1 0 -0 
1 -41.75 66.840000000000003 7.9500000000000002 0 0 1 1 0 -0 -0 1 0 
2 -40.450000000000003 66.950000000000003 7.7249999999999996 0 1 0 0 -0 1 1 0 -0 0.29999999999999999
10 3.1415926535897931 9.4247779607693793 -2e+100 2e+100
2 -40.450000000000003 66.950000000000003 7.7249999999999996 0 1 0 0 -0 1 1 0 -0 0.29999999999999999
1 -41.75 66.840000000000003 7.9500000000000002 1 0 -0 0 0 1 0 -1 0 
2 -41.975000000000001 66.950000000000003 9 0 1 0 0 -0 1 1 0 -0 0.29999999999999999
1 -41.975000000000001 67.350000000000009 9 0 1 0 0 -0 1 1 0 -0 
1 -41.975000000000001 66.949999999999989 9 0 1 0 0 -0 1 1 0 -0 
3 -40.450000000000003 66.849999999999994 7.7249999999999996 0 1 0 0 -0 1 1 0 -0 0.22500000000000001
0.64350110879328426
Triangulations 0

TShapes 281
Ve
1.00000000222045e-07
-42.05 66.15 6.2
0 0

0101101
*
Ve
1.00000000222045e-07
-42.05 68.7 6.2
0 0

0101101
*
Ed
 1.00000000222045e-07 1 1 0
1  1 0 0.349999999999994 2.90000000000001
2  1 2 0 0.349999999999994 2.90000000000001
4 G1 1 0 2 0
0

0101000
+281 0 -280 0 *
Ve
1.00000000222045e-07
-38.85 66.15 6.2
0 0

0101101
*
Ed
 1e-07 1 1 0
1  2 0 0 3.2
2  2 3 0 0 3.2
2  3 1 0 0 3.2
4 G1 3 0 1 0
0

0101000
+281 0 -278 0 *
Ve
1.00000000222045e-07
-38.85 68.7 6.2
0 0

0101101
*
Ed
 1e-07 1 1 0
1  3 0 0 3.2
2  4 4 0 0 3.2
2  5 1 0 0 3.2
4 G1 4 0 1 0
0

0101000
+280 0 -276 0 *
Ed
 1.00000000222045e-07 1 1 0
1  4 0 0.349999999999994 2.90000000000001
2  6 5 0 0.349999999999994 2.90000000000001
4 G1 1 0 5 0
0

0101000
+278 0 -276 0 *
Wi

0101100
+279 0 -277 0 +275 0 -274 0 *
Fa
0  1e-07 1 0

0101000
+273 0 *
Ve
1.00000000222045e-07
-38.85 66.15 11.8
0 0

0101101
*
Ed
 1e-07 1 1 0
1  5 0 0 3.14159265358979
2  7 6 0 0 3.14159265358979
2  8 5 0 0 3.14159265358979
4 G1 6 0 5 0
0

0101000
+278 0 -271 0 *
Ve
1.00000000222045e-07
-38.85 68.7 11.8
0 0

0101101
*
Ed
 1e-07 1 1 0
1  6 0 0 3.14159265358979
2  9 7 0 0 3.14159265358979
2  10 5 0 0 3.14159265358979
4 G1 7 0 5 0
0

0101000
+276 0 -269 0 *
Ed
 1.00000000222045e-07 1 1 0
1  7 0 0.349999999999994 2.90000000000001
2  11 5 0 0.349999999999994 2.90000000000001
4 G1 5 0 8 0
0

0101000
+271 0 -269 0 *
Wi

0101100
+274 0 -270 0 +268 0 -267 0 *
Fa
0  1e-07 5 0

0101000
+266 0 *
Ve
1.00000000222045e-07
-42.05 66.15 11.8
0 0

0101101
*
Ed
 1e-07 1 1 0
1  8 0 0 3.2
2  12 9 0 0 3.2
2  13 8 0 0 3.2
4 G1 9 0 8 0
0

0101000
+271 0 -264 0 *
Ve
1.00000000222045e-07
-42.05 68.7 11.8
0 0

0101101
*
Ed
 1e-07 1 1 0
1  9 0 0 3.2
2  14 10 0 0 3.2
2  15 8 0 0 3.2
4 G1 10 0 8 0
0

0101000
+269 0 -262 0 *
Ed
 1.00000000222045e-07 1 1 0
1  10 0 0.349999999999994 2.90000000000001
2  16 2 0 0.349999999999994 2.90000000000001
4 G1 8 0 2 0
0

0101000
+264 0 -262 0 *
Wi

0101100
+267 0 -263 0 +261 0 -260 0 *
Fa
0  1e-07 8 0

0101000
+259 0 *
Ve
1e-07
-38.85 69.55 10.95
0 0

0101101
*
Ed
 1e-07 1 1 0
1  11 0 0 1.5707963267949
2  17 7 0 0 1.5707963267949
2  18 10 0 0 1.5707963267949
4 G1 7 0 10 0
0

0101000
+269 0 -257 0 *
Ve
1e-07
-42.05 69.55 10.95
0 0

0101101
*
Ed
 1e-07 1 1 0
1  12 0 0 3.2
2  19 10 0 0 3.2
2  20 11 0 0 3.2
4 G1 10 0 11 0
0

0101000
+257 0 -255 0 *
Ed
 1e-07 1 1 0
1  13 0 0 1.5707963267949
2  21 10 0 0 1.5707963267949
2  22 12 0 0 1.5707963267949
4 G1 10 0 12 0
0

0101000
+262 0 -255 0 *
Wi

0101100
+256 0 -261 0 +254 0 -253 0 *
Fa
0  0 10 0

0101000
+252 0 *
Ed
 1e-07 1 1 0
1  14 0 0 3.14159265358979
2  23 12 0 0 3.14159265358979
2  24 2 0 0 3.14159265358979
4 G1 12 0 2 0
0

0101000
+262 0 -280 0 *
Ve
1e-07
-42.05 69.55 7.05
0 0

0101101
*
Ed
 1e-07 1 1 0
1  15 0 0 3.14159265358979
2  25 12 0 0 3.14159265358979
2  26 11 0 0 3.14159265358979
4 G1 12 0 11 0
0

0101000
+255 0 -249 0 *
Ed
 1e-07 1 1 0
1  16 0 0 1.5707963267949
2  27 12 0 0 1.5707963267949
2  28 4 0 0 1.5707963267949
4 G1 12 0 4 0
0

0101000
+280 0 -249 0 *
Wi

0101100
-253 0 +250 0 -248 0 +247 0 *
Fa
0  0 12 0

0101000
+246 0 *
Ve
1e-07
-38.85 69.55 7.05
0 0

0101101
*
Ed
 1e-07 1 1 0
1  17 0 0 3.14159265358979
2  29 7 0 0 3.14159265358979
2  30 11 0 0 3.14159265358979
4 G1 7 0 11 0
0

0101000
+244 0 -257 0 *
Ed
 1e-07 1 1 0
1  18 0 0 3.2
2  31 4 0 0 3.2
2  32 11 0 0 3.2
4 G1 4 0 11 0
0

0101000
+249 0 -244 0 *
Wi

0101100
+243 0 +242 0 +254 0 +248 0 *
Fa
0  1e-07 11 0

0101000
+241 0 *
Ve
1e-07
-38.85 65.8 11.45
0 0

0101101
*
Ed
 1e-07 1 1 0
1  19 0 0 1.5707963267949
2  33 6 0 0 1.5707963267949
2  34 9 0 0 1.5707963267949
4 G1 6 0 9 0
0

0101000
+271 0 -239 0 *
Ve
1e-07
-42.05 65.8 11.45
0 0

0101101
*
Ed
 1e-07 1 1 0
1  20 0 0 3.2
2  35 9 0 0 3.2
2  36 13 0 0 3.2
4 G1 9 0 13 0
0

0101000
+239 0 -237 0 *
Ed
 1e-07 1 1 0
1  21 0 0 1.5707963267949
2  37 14 0 0 1.5707963267949
2  38 9 0 0 1.5707963267949
4 G1 14 0 9 0
0

0101000
+264 0 -237 0 *
Wi

0101100
+238 0 -263 0 +236 0 -235 0 *
Fa
0  0 9 0

0101000
+234 0 *
Ed
 1e-07 1 1 0
1  22 0 0 3.14159265358979
2  39 14 0 0 3.14159265358979
2  40 2 0 0 3.14159265358979
4 G1 14 0 2 0
0

0101000
+264 0 -281 0 *
Ve
1e-07
-42.05 65.8 6.55
0 0

0101101
*
Ed
 1e-07 1 1 0
1  23 0 0 3.14159265358979
2  41 14 0 0 3.14159265358979
2  42 13 0 0 3.14159265358979
4 G1 14 0 13 0
0

0101000
+237 0 -231 0 *
Ed
 1e-07 1 1 0
1  24 0 0 1.5707963267949
2  43 14 0 0 1.5707963267949
2  44 3 0 0 1.5707963267949
4 G1 14 0 3 0
0

0101000
+281 0 -231 0 *
Wi

0101100
-235 0 +232 0 -230 0 +229 0 *
Fa
0  0 14 0

0101000
+228 0 *
Ve
1e-07
-38.85 65.8 6.55
0 0

0101101
*
Ed
 1e-07 1 1 0
1  25 0 0 3.2
2  45 3 0 0 3.2
2  46 13 0 0 3.2
4 G1 3 0 13 0
0

0101000
+231 0 -226 0 *
Ed
 1e-07 1 1 0
1  26 0 0 3.14159265358979
2  47 6 0 0 3.14159265358979
2  48 13 0 0 3.14159265358979
4 G1 6 0 13 0
0

0101000
+226 0 -239 0 *
Wi

0101100
+230 0 +236 0 +225 0 +224 0 *
Ve
1.5e-07
-42.6 65.8 7
0 0

0101101
*
Ve
1.5e-07
-42.85 65.8 7.25
0 0

0101101
*
Ed
 1e-07 1 1 0
1  27 0 4.71238898038469 6.28318530717959
2  49 13 0 4.71238898038469 6.28318530717959
2  50 15 0 4.71238898038469 6.28318530717959
0

0101000
+222 0 -221 0 *
Ve
1.5e-07
-38.3 65.8 7
0 0

0101101
*
Ed
 1.5e-07 1 1 0
1  28 0 -0.949999999999996 3.35
2  51 13 0 -0.949999999999996 3.35
2  52 16 1 -0.949999999999996 3.35
0

0101000
+222 0 -219 0 *
Ve
1.5e-07
-38.05 65.8 7.25
0 0

0101101
*
Ed
 1e-07 1 1 0
1  29 0 0 1.5707963267949
2  53 13 0 0 1.5707963267949
2  54 17 0 0 1.5707963267949
0

0101000
+217 0 -219 0 *
Ve
1.5e-07
-38.05 65.8 10.75
0 0

0101101
*
Ed
 1.5e-07 1 1 0
1  30 0 -2.75 0.75
2  55 13 0 -2.75 0.75
2  56 18 1 -2.75 0.75
0

0101000
+217 0 -215 0 *
Ve
1.5e-07
-38.3 65.8 11
0 0

0101101
*
Ed
 1e-07 1 1 0
1  31 0 4.71238898038469 6.28318530717959
2  57 13 0 4.71238898038469 6.28318530717959
2  58 19 0 4.71238898038469 6.28318530717959
0

0101000
+213 0 -215 0 *
Ve
1.5e-07
-42.6 65.8 11
0 0

0101101
*
Ed
 1.5e-07 1 1 0
1  32 0 -0.949999999999996 3.35
2  59 13 0 -0.949999999999996 3.35
2  60 20 1 -0.949999999999996 3.35
0

0101000
+211 0 -213 0 *
Ve
1.5e-07
-42.85 65.8 10.75
0 0

0101101
*
Ed
 1e-07 1 1 0
1  33 0 0 1.5707963267949
2  61 13 0 0 1.5707963267949
2  62 21 0 0 1.5707963267949
0

0101000
+209 0 -211 0 *
Ed
 1.5e-07 1 1 0
1  34 0 -2.75 0.75
2  63 13 0 -2.75 0.75
2  64 22 1 -2.75 0.75
0

0101000
+221 0 -209 0 *
Wi

0101100
+220 0 -218 0 +216 0 -214 0 +212 0 +210 0 +208 0 +207 0 *
Fa
0  1e-07 13 0

0101000
+223 0 +206 0 *
Ve
1e-07
-42.85 66.85 10.75
0 0

0101101
*
Ve
1e-07
-42.85 66.85 7.25
0 0

0101101
*
Ed
 1e-07 1 1 0
1  35 0 0.25 3.75
2  65 23 0 0.25 3.75
2  66 22 0 0.25 3.75
0

0101000
+204 2 -203 2 *
Ed
 1e-07 1 1 0
1  36 0 0.299999999999997 1.35
2  67 15 0 0.299999999999997 1.35
4 G1 22 1 15 0
2  68 22 1 0.299999999999997 1.35
0

0101000
+221 0 -203 0 *
Ed
 1e-07 1 1 0
1  37 0 0.299999999999997 1.35
2  69 21 0 0.299999999999997 1.35
4 G1 22 1 21 0
2  70 22 1 0.299999999999997 1.35
0

0101000
+209 0 -204 0 *
Wi

0101100
-202 1 +201 0 -207 0 -200 0 *
Fa
0  1e-07 22 1

0101000
+199 0 *
Ve
1e-07
-42.6 66.85 11
0 0

0101101
*
Ed
 1e-07 1 1 0
1  38 0 4.71238898038469 6.28318530717959
2  71 21 0 4.71238898038469 6.28318530717959
2  72 23 1 4.71238898038469 6.28318530717959
0

0101000
+204 0 -197 0 *
Ve
1e-07
-38.3 66.85 11
0 0

0101101
*
Ed
 1e-07 1 1 0
1  39 0 0.25 4.55
2  73 23 0 0.25 4.55
2  74 20 0 0.25 4.55
0

0101000
+197 2 -195 2 *
Ve
1e-07
-38.05 66.85 10.75
0 0

0101101
*
Ed
 1e-07 1 1 0
1  40 0 4.71238898038469 6.28318530717959
2  75 19 0 4.71238898038469 6.28318530717959
2  76 23 1 4.71238898038469 6.28318530717959
0

0101000
+193 0 -195 0 *
Ve
1e-07
-38.05 66.85 7.25
0 0

0101101
*
Ed
 1e-07 1 1 0
1  41 0 0.25 3.75
2  77 23 0 0.25 3.75
2  78 18 0 0.25 3.75
0

0101000
+193 2 -191 2 *
Ve
1e-07
-38.3 66.85 7
0 0

0101101
*
Ed
 1e-07 1 1 0
1  42 0 1.5707963267949 3.14159265358979
2  79 17 0 1.5707963267949 3.14159265358979
2  80 23 1 1.5707963267949 3.14159265358979
0

0101000
+191 0 -189 0 *
Ve
1e-07
-42.6 66.85 7
0 0

0101101
*
Ed
 1e-07 1 1 0
1  43 0 0.25 4.55
2  81 23 0 0.25 4.55
2  82 16 0 0.25 4.55
0

0101000
+187 2 -189 2 *
Ed
 1e-07 1 1 0
1  44 0 1.5707963267949 3.14159265358979
2  83 15 0 1.5707963267949 3.14159265358979
2  84 23 1 1.5707963267949 3.14159265358979
0

0101000
+203 0 -187 0 *
Wi

0101100
-202 1 +196 0 +194 1 -192 0 +190 1 +188 0 -186 1 -185 0 *
Ve
1e-07
-41.85 66.85 10.15
0 0

0101101
*
Ve
5.000001e-06
-40.6370828693387 66.85 10.15
0 0

0101101
*
Ed
 1e-07 1 1 0
1  45 0 0 1.2129171306613
2  85 25 4 0 1.2129171306613
2  86 26 4 0 1.2129171306613
2  87 23 5 0 1.2129171306613
0

0101000
+183 4 -182 4 *
Ve
5.000001e-06
-41.85 66.85 9.18708286933869
0 0

0101101
*
Ed
 1e-07 1 1 0
1  46 0 1.33708286933869 2.3
2  88 27 4 1.33708286933869 2.3
2  89 26 4 1.33708286933869 2.3
2  90 23 5 1.33708286933869 2.3
0

0101000
+180 4 -183 4 *
Ve
5.000001e-06
-41.85 66.85 8.8129171306613
0 0

0101101
*
Ed
 1e-07 1 1 0
1  47 0 0.589030970216326 2.55256168337356
2  91 28 0 0.589030970216326 2.55256168337356
2  92 29 0 0.589030970216326 2.55256168337356
0

0101000
+180 0 -178 0 *
Ve
1e-07
-41.85 66.85 7.85
0 0

0101101
*
Ed
 1e-07 1 1 0
1  46 0 0 0.962917130661296
2  88 27 4 0 0.962917130661296
2  89 26 4 0 0.962917130661296
2  90 23 5 0 0.962917130661296
0

0101000
+176 4 -178 4 *
Ve
5.000001e-06
-40.6370828693387 66.85 7.84999999999999
0 0

0101101
*
Ed
 1e-07 1 1 0
1  48 0 1.5870828693387 2.8
2  93 30 4 1.5870828693387 2.8
2  94 26 4 1.5870828693387 2.8
2  95 23 5 1.5870828693387 2.8
0

0101000
+174 4 -176 4 *
Ve
5.000001e-06
-40.2629171306613 66.85 7.84999999999999
0 0

0101101
*
Ed
 1e-07 1 1 0
1  49 0 0 1.96353071315731
2  96 31 0 0 1.96353071315731
0

0101000
+172 0 -174 0 *
Ve
1e-07
-39.05 66.85 7.85
0 0

0101101
*
Ed
 1e-07 1 1 0
1  48 0 0 1.2129171306613
2  93 30 4 0 1.2129171306613
2  94 26 4 0 1.2129171306613
2  95 23 5 0 1.2129171306613
0

0101000
+170 4 -172 4 *
Ve
5.000001e-06
-39.05 66.85 8.8129171306613
0 0

0101101
*
Ed
 1e-07 1 1 0
1  50 0 1.3370828693387 2.3
2  97 32 4 1.3370828693387 2.3
2  98 26 4 1.3370828693387 2.3
2  99 23 5 1.3370828693387 2.3
0

0101000
+168 4 -170 4 *
Ve
5.000001e-06
-39.05 66.85 9.18708286933869
0 0

0101101
*
Ed
 1e-07 1 1 0
1  51 0 3.73062362380602 5.69415433696326
2  100 33 0 3.73062362380602 5.69415433696326
2  101 34 0 3.73062362380602 5.69415433696326
0

0101000
+168 0 -166 0 *
Ve
1e-07
-39.05 66.85 10.15
0 0

0101101
*
Ed
 1e-07 1 1 0
1  50 0 0 0.962917130661314
2  97 32 4 0 0.962917130661314
2  98 26 4 0 0.962917130661314
2  99 23 5 0 0.962917130661314
0

0101000
+164 4 -166 4 *
Ve
5.000001e-06
-40.2629171306613 66.85 10.15
0 0

0101101
*
Ed
 1e-07 1 1 0
1  45 0 1.5870828693387 2.8
2  85 25 4 1.5870828693387 2.8
2  86 26 4 1.5870828693387 2.8
2  87 23 5 1.5870828693387 2.8
0

0101000
+162 4 -164 4 *
Ed
 1e-07 1 1 0
1  52 0 2.15982729701114 4.12335801016844
2  102 35 0 2.15982729701114 4.12335801016844
2  103 36 0 2.15982729701114 4.12335801016844
0

0101000
+162 0 -182 0 *
Wi

0101100
-181 3 -179 3 +177 0 -175 3 -173 3 -171 0 -169 3 -167 3 +165 0 -163 3 
-161 3 +160 0 *
Fa
0  0 24 0

0111000
+184 0 +159 0 *
Ve
5.00000014863129e-06
-40.2515686516703 66.95 10.0499999999999
0 0

0101101
*
Ve
5.00000053652152e-06
-40.6484313483297 66.95 10.0499999999999
0 0

0101101
*
Ed
 1.00000014210855e-07 1 1 0
1  53 0 2.41885840577686 3.86432690140273
2  104 35 0 2.41885840577686 3.86432690140273
2  105 37 0 2.41885840577686 3.86432690140273
2  106 38 0 2.41885840577686 3.86432690140273
0

0101000
+157 0 -156 0 *
Ed
 5e-06 1 1 0
1  54 0 0 1
2  107 25 0 0 1
2  108 35 0 0 1
0

0101000
+182 0 -156 0 *
Ed
 5e-06 1 1 0
1  55 0 0 1
2  109 25 0 0 1
2  110 35 0 0 1
0

0101000
+162 0 -157 0 *
Wi

0101100
-155 0 +154 0 +160 0 -153 0 *
Fa
0  1e-07 35 0

0101000
+152 0 *
Ve
1.00000170271007e-07
-40.2515686516703 67.35 10.0499999999999
0 0

0101101
*
Ve
1.00000170271007e-07
-40.6484313483297 67.35 10.0499999999999
0 0

0101101
*
Ed
 1.00000014210855e-07 1 1 0
1  56 0 2.41885840577691 3.86432690140268
2  111 38 0 2.41885840577691 3.86432690140268
2  112 39 0 2.41885840577691 3.86432690140268
2  113 40 0 2.41885840577691 3.86432690140268
0

0101000
+150 0 -149 0 *
Ed
 1e-07 1 1 0
1  57 0 -6.00000007011658e-07 0.399999999999991
2  114 41 0 -6.00000007011658e-07 0.399999999999991
2  115 38 0 -6.00000007011658e-07 0.399999999999991
0

0101000
+156 0 -149 0 *
Ed
 1e-07 1 1 0
1  58 0 -6.00000007011658e-07 0.399999999999991
2  116 41 0 -6.00000007011658e-07 0.399999999999991
2  117 38 0 -6.00000007011658e-07 0.399999999999991
0

0101000
+157 0 -150 0 *
Wi

0101100
-148 0 +147 0 +155 0 -146 0 *
Fa
0  1e-07 38 0

0101000
+145 0 *
Ve
1e-07
-39.15 67.35 10.05
0 0

0101101
*
Ed
 1e-07 1 1 0
1  59 0 1.49843134832969 2.59999999999999
2  118 40 0 1.49843134832969 2.59999999999999
2  119 41 0 1.49843134832969 2.59999999999999
0

0101000
+150 0 -143 0 *
Ve
1.00000001776357e-07
-39.15 66.95 10.05
0 0

0101101
*
Ed
 1e-07 1 1 0
1  60 0 0.109999999999985 0.509999999999991
2  120 42 0 0.109999999999985 0.509999999999991
2  121 41 0 0.109999999999985 0.509999999999991
0

0101000
+141 0 -143 0 *
Ed
 1.00000001776357e-07 1 1 0
1  61 0 1.4984313483297 2.6
2  122 25 7 1.4984313483297 2.6
2  123 43 7 1.4984313483297 2.6
2  124 41 7 1.4984313483297 2.6
0

0101000
+157 7 -141 7 *
Wi

0101100
-146 0 -142 0 +140 0 +139 6 *
Fa
0  1e-07 41 0

0101000
+138 0 *
Ve
1.00000148120895e-07
-39.1500000000001 67.35 9.19843134832971
0 0

0101101
*
Ed
 1e-07 1 1 0
1  62 0 1.24843134832971 2.1
2  125 42 0 1.24843134832971 2.1
2  126 40 0 1.24843134832971 2.1
0

0101000
+136 0 -143 0 *
Ve
5.00000015305559e-06
-39.1500000000001 66.95 9.19843134832971
0 0

0101101
*
Ed
 1e-07 1 1 0
1  63 0 -6.00000007011658e-07 0.399999999999991
2  127 42 0 -6.00000007011658e-07 0.399999999999991
2  128 44 0 -6.00000007011658e-07 0.399999999999991
0

0101000
+134 0 -136 0 *
Ed
 1e-07 1 1 0
1  64 0 0 0.851568651670293
2  129 32 7 0 0.851568651670293
2  130 43 7 0 0.851568651670293
2  131 42 7 0 0.851568651670293
0

0101000
+141 7 -134 7 *
Wi

0101100
-140 0 +135 0 +133 0 +132 6 *
Fa
0  1e-07 42 0

0101000
+131 0 *
Ve
1.00000148120895e-07
-39.1500000000001 67.35 8.80156865167029
0 0

0101101
*
Ed
 1.00000014210855e-07 1 1 0
1  65 0 3.98965473257175 5.43512322819763
2  132 44 0 3.98965473257175 5.43512322819763
2  133 45 0 3.98965473257175 5.43512322819763
2  134 40 0 3.98965473257175 5.43512322819763
0

0101000
+129 0 -136 0 *
Ve
5.00000015908067e-06
-39.1500000000001 66.95 8.8015686516703
0 0

0101101
*
Ed
 1.00000014210855e-07 1 1 0
1  66 0 3.98965473257178 5.43512322819763
2  135 33 0 3.98965473257178 5.43512322819763
2  136 46 0 3.98965473257178 5.43512322819763
2  137 44 0 3.98965473257178 5.43512322819763
0

0101000
+127 0 -134 0 *
Ed
 1e-07 1 1 0
1  67 0 -6.00000007011658e-07 0.399999999999991
2  138 42 0 -6.00000007011658e-07 0.399999999999991
2  139 44 0 -6.00000007011658e-07 0.399999999999991
0

0101000
+127 0 -129 0 *
Wi

0101100
-128 0 +133 0 +126 0 -125 0 *
Fa
0  1e-07 44 0

0101000
+124 0 *
Ve
1e-07
-39.15 67.35 7.95
0 0

0101101
*
Ed
 1e-07 1 1 0
1  62 0 0 0.851568651670294
2  125 42 0 0 0.851568651670294
2  126 40 0 0 0.851568651670294
0

0101000
+122 0 -129 0 *
Ve
1.00000000888178e-07
-39.15 66.95 7.95
0 0

0101101
*
Ed
 1e-07 1 1 0
1  68 0 0.109999999999985 0.509999999999991
2  140 42 0 0.109999999999985 0.509999999999991
2  141 47 0 0.109999999999985 0.509999999999991
0

0101000
+120 0 -122 0 *
Ed
 1e-07 1 1 0
1  64 0 1.2484313483297 2.1
2  129 32 7 1.2484313483297 2.1
2  130 43 7 1.2484313483297 2.1
2  131 42 7 1.2484313483297 2.1
0

0101000
+127 7 -120 7 *
Wi

0101100
-125 0 +121 0 +119 0 +118 6 *
Fa
0  1e-07 42 0

0101000
+117 0 *
Ve
5.00000015657152e-06
-40.2515686516703 66.95 7.95000000000007
0 0

0101101
*
Ve
1.00000164140082e-07
-40.2515686516703 67.35 7.95000000000007
0 0

0101101
*
Ed
 1e-07 1 1 0
1  69 0 -6.00000007011658e-07 0.399999999999991
2  142 47 0 -6.00000007011658e-07 0.399999999999991
2  143 48 0 -6.00000007011658e-07 0.399999999999991
2  144 49 0 -6.00000007011658e-07 0.399999999999991
0

0101000
+115 0 -114 0 *
Ed
 1e-07 1 1 0
1  70 0 1.49843134832969 2.59999999999999
2  145 40 0 1.49843134832969 2.59999999999999
2  146 47 0 1.49843134832969 2.59999999999999
0

0101000
+114 0 -122 0 *
Ed
 1.00000000888178e-07 1 1 0
1  71 0 0 1.10156865167031
2  147 30 7 0 1.10156865167031
2  148 43 7 0 1.10156865167031
2  149 47 7 0 1.10156865167031
0

0101000
+120 7 -115 7 *
Wi

0101100
-113 0 -112 0 +119 0 -111 6 *
Fa
0  1e-07 47 0

0101000
+110 0 *
Ve
1.00000163772009e-07
-40.6484313483297 67.35 7.95000000000007
0 0

0101101
*
Ed
 1e-07 1 1 0
1  72 0 0 1.44546849562577
2  150 49 0 0 1.44546849562577
0

0101000
+108 0 -114 0 *
Ve
5.00000015657152e-06
-40.6484313483297 66.95 7.95000000000007
0 0

0101101
*
Ed
 1e-07 1 1 0
1  73 0 -6.00000007011658e-07 0.399999999999991
2  151 47 0 -6.00000007011658e-07 0.399999999999991
2  152 48 0 -6.00000007011658e-07 0.399999999999991
2  153 49 0 -6.00000007011658e-07 0.399999999999991
0

0101000
+106 0 -108 0 *
Ed
 1e-07 1 1 0
1  74 0 0 1.44546849562577
2  154 31 0 0 1.44546849562577
2  155 49 0 0 1.44546849562577
0

0101000
+115 0 -106 0 *
Wi

0101100
-107 0 -105 0 -104 0 +113 0 *
Fa
0  0 49 0

0111000
+103 0 *
Ve
1.00000000888178e-07
-41.75 66.95 7.95
0 0

0101101
*
Ve
1e-07
-41.75 67.35 7.95
0 0

0101101
*
Ed
 1e-07 1 1 0
1  75 0 0.109999999999985 0.509999999999991
2  156 50 0 0.109999999999985 0.509999999999991
2  157 47 0 0.109999999999985 0.509999999999991
0

0101000
+101 0 -100 0 *
Ed
 1e-07 1 1 0
1  70 0 0 1.10156865167031
2  145 40 0 0 1.10156865167031
2  146 47 0 0 1.10156865167031
0

0101000
+100 0 -108 0 *
Ed
 1.00000000888178e-07 1 1 0
1  71 0 1.49843134832969 2.6
2  147 30 7 1.49843134832969 2.6
2  148 43 7 1.49843134832969 2.6
2  149 47 7 1.49843134832969 2.6
0

0101000
+106 7 -101 7 *
Wi

0101100
-99 0 -98 0 +105 0 -97 6 *
Fa
0  1e-07 47 0

0101000
+96 0 *
Ve
5.00000016233997e-06
-41.7499999999999 66.95 8.8015686516703
0 0

0101101
*
Ve
1.00000146482138e-07
-41.7499999999999 67.35 8.80156865167029
0 0

0101101
*
Ed
 1e-07 1 1 0
1  76 0 -6.00000007011658e-07 0.399999999999991
2  158 50 0 -6.00000007011658e-07 0.399999999999991
2  159 51 0 -6.00000007011658e-07 0.399999999999991
0

0101000
+94 0 -93 0 *
Ed
 1e-07 1 1 0
1  77 0 0 0.851568651670292
2  160 50 0 0 0.851568651670292
2  161 40 0 0 0.851568651670292
0

0101000
+100 0 -93 0 *
Ed
 1e-07 1 1 0
1  78 0 0 0.851568651670302
2  162 27 7 0 0.851568651670302
2  163 43 7 0 0.851568651670302
2  164 50 7 0 0.851568651670302
0

0101000
+101 7 -94 7 *
Wi

0101100
-92 0 +91 0 +99 0 -90 6 *
Fa
0  1e-07 50 0

0101000
+89 0 *
Ve
1.00000148120895e-07
-41.7499999999999 67.35 9.19843134832971
0 0

0101101
*
Ed
 1.00000014210855e-07 1 1 0
1  79 0 0.848062078981956 2.29353057460784
2  165 51 0 0.848062078981956 2.29353057460784
2  166 52 0 0.848062078981956 2.29353057460784
2  167 40 0 0.848062078981956 2.29353057460784
0

0101000
+87 0 -93 0 *
Ve
5.00000014976279e-06
-41.7499999999999 66.95 9.19843134832971
0 0

0101101
*
Ed
 1.00000014210855e-07 1 1 0
1  80 0 0.848062078981956 2.2935305746078
2  168 28 0 0.848062078981956 2.2935305746078
2  169 53 0 0.848062078981956 2.2935305746078
2  170 51 0 0.848062078981956 2.2935305746078
0

0101000
+85 0 -94 0 *
Ed
 1e-07 1 1 0
1  81 0 -6.00000007011658e-07 0.399999999999991
2  171 50 0 -6.00000007011658e-07 0.399999999999991
2  172 51 0 -6.00000007011658e-07 0.399999999999991
0

0101000
+85 0 -87 0 *
Wi

0101100
-86 0 +92 0 +84 0 -83 0 *
Fa
0  1e-07 51 0

0101000
+82 0 *
Ve
1.00000001776357e-07
-41.75 66.95 10.05
0 0

0101101
*
Ve
1e-07
-41.75 67.35 10.05
0 0

0101101
*
Ed
 1e-07 1 1 0
1  82 0 0.109999999999985 0.509999999999991
2  173 50 0 0.109999999999985 0.509999999999991
2  174 41 0 0.109999999999985 0.509999999999991
0

0101000
+80 0 -79 0 *
Ed
 1e-07 1 1 0
1  77 0 1.24843134832971 2.1
2  160 50 0 1.24843134832971 2.1
2  161 40 0 1.24843134832971 2.1
0

0101000
+87 0 -79 0 *
Ed
 1e-07 1 1 0
1  78 0 1.24843134832971 2.1
2  162 27 7 1.24843134832971 2.1
2  163 43 7 1.24843134832971 2.1
2  164 50 7 1.24843134832971 2.1
0

0101000
+85 7 -80 7 *
Wi

0101100
-78 0 +77 0 +83 0 -76 6 *
Fa
0  1e-07 50 0

0101000
+75 0 *
Ed
 1e-07 1 1 0
1  59 0 0 1.10156865167031
2  118 40 0 0 1.10156865167031
2  119 41 0 0 1.10156865167031
0

0101000
+79 0 -149 0 *
Ed
 1.00000001776357e-07 1 1 0
1  61 0 0 1.10156865167029
2  122 25 7 0 1.10156865167029
2  123 43 7 0 1.10156865167029
2  124 41 7 0 1.10156865167029
0

0101000
+80 7 -156 7 *
Wi

0101100
-78 0 -73 0 +147 0 +72 6 *
Fa
0  1e-07 41 0

0101000
+71 0 *
Wi

0101100
-98 0 +91 0 -86 0 +77 0 +73 0 -148 0 +142 0 -135 0 -128 0 -121 0 
-112 0 -107 0 *
Fa
0  1e-07 40 0

0111000
+69 0 *
Ed
 1e-07 1 1 0
1  83 0 0 1
2  175 25 0 0 1
2  176 32 0 0 1
0

0101000
+164 0 -141 0 *
Wi

0101100
-153 0 -139 6 +67 0 +161 3 *
Fa
0  1e-07 25 0

0101000
+66 0 *
Ed
 5e-06 1 1 0
1  84 0 0 1
2  177 32 0 0 1
2  178 33 0 0 1
0

0101000
+166 0 -134 0 *
Wi

0101100
-67 0 -132 6 +64 0 +163 3 *
Fa
0  1e-07 32 0

0101000
+63 0 *
Ed
 5e-06 1 1 0
1  85 0 0 1
2  179 32 0 0 1
2  180 33 0 0 1
0

0101000
+168 0 -127 0 *
Wi

0101100
-126 0 +64 0 +165 0 -61 0 *
Fa
0  1e-07 33 0

0101000
+60 0 *
Ed
 1e-07 1 1 0
1  86 0 0 1
2  181 32 0 0 1
2  182 30 0 0 1
0

0101000
+170 0 -120 0 *
Wi

0101100
-61 0 -118 6 +58 0 +167 3 *
Fa
0  1e-07 32 0

0101000
+57 0 *
Ed
 5e-06 1 1 0
1  87 0 0 1
2  183 30 0 0 1
2  184 54 0 0 1
2  185 31 0 0 1
0

0101000
+172 0 -115 0 *
Wi

0101100
-58 0 -111 6 +55 0 +169 3 *
Fa
0  1e-07 30 0

0101000
+54 0 *
Ed
 5e-06 1 1 0
1  88 0 0 1
2  186 30 0 0 1
2  187 54 0 0 1
2  188 31 0 0 1
0

0101000
+174 0 -106 0 *
Wi

0101100
+104 0 -52 0 -171 0 +55 0 *
Fa
0  0 31 0

0111000
+51 0 *
Ed
 1e-07 1 1 0
1  89 0 0 1
2  189 30 0 0 1
2  190 27 0 0 1
0

0101000
+176 0 -101 0 *
Wi

0101100
-52 0 -97 6 +49 0 +173 3 *
Fa
0  1e-07 30 0

0101000
+48 0 *
Ed
 5e-06 1 1 0
1  90 0 0 1
2  191 27 0 0 1
2  192 28 0 0 1
0

0101000
+178 0 -94 0 *
Wi

0101100
-49 0 -90 6 +46 0 +175 3 *
Fa
0  1e-07 27 0

0101000
+45 0 *
Ed
 5e-06 1 1 0
1  91 0 0 1
2  193 27 0 0 1
2  194 28 0 0 1
0

0101000
+180 0 -85 0 *
Wi

0101100
-84 0 +46 0 +177 0 -43 0 *
Fa
0  1e-07 28 0

0101000
+42 0 *
Ed
 1e-07 1 1 0
1  92 0 0 1
2  195 25 0 0 1
2  196 27 0 0 1
0

0101000
+183 0 -80 0 *
Wi

0101100
-43 0 -76 6 +40 0 +179 3 *
Fa
0  1e-07 27 0

0101000
+39 0 *
Wi

0101100
-40 0 -72 6 +154 0 +181 3 *
Fa
0  1e-07 25 0

0101000
+37 0 *
Ed
 1e-07 1 1 0
1  93 0 0.299999999999997 1.35
2  197 21 0 0.299999999999997 1.35
4 G1 21 0 20 1
2  198 20 1 0.299999999999997 1.35
0

0101000
+211 0 -197 0 *
Wi

0101100
-200 0 -196 0 +35 0 +208 0 *
Fa
0  1e-07 21 0

0101000
+34 0 *
Ed
 1e-07 1 1 0
1  94 0 0.299999999999997 1.35
2  199 19 0 0.299999999999997 1.35
4 G1 20 1 19 0
2  200 20 1 0.299999999999997 1.35
0

0101000
+213 0 -195 0 *
Wi

0101100
-210 0 -32 0 +194 1 +35 0 *
Fa
0  1e-07 20 1

0101000
+31 0 *
Ed
 1e-07 1 1 0
1  95 0 0.299999999999997 1.35
2  201 19 0 0.299999999999997 1.35
4 G1 19 0 18 1
2  202 18 1 0.299999999999997 1.35
0

0101000
+215 0 -193 0 *
Wi

0101100
-29 0 -192 0 +32 0 -212 0 *
Fa
0  1e-07 19 0

0101000
+28 0 *
Ed
 1e-07 1 1 0
1  96 0 0.299999999999997 1.35
2  203 17 0 0.299999999999997 1.35
4 G1 17 0 18 1
2  204 18 1 0.299999999999997 1.35
0

0101000
+217 0 -191 0 *
Wi

0101100
-190 1 +26 0 -214 0 -29 0 *
Fa
0  1e-07 18 1

0101000
+25 0 *
Ed
 1e-07 1 1 0
1  97 0 0.299999999999997 1.35
2  205 17 0 0.299999999999997 1.35
4 G1 16 1 17 0
2  206 16 1 0.299999999999997 1.35
0

0101000
+219 0 -189 0 *
Wi

0101100
-26 0 -188 0 +23 0 +216 0 *
Fa
0  1e-07 17 0

0101000
+22 0 *
Ed
 1e-07 1 1 0
1  98 0 0.299999999999997 1.35
2  207 15 0 0.299999999999997 1.35
4 G1 15 0 16 1
2  208 16 1 0.299999999999997 1.35
0

0101000
+222 0 -187 0 *
Wi

0101100
-218 0 -23 0 +186 1 +20 0 *
Fa
0  1e-07 16 1

0101000
+19 0 *
Wi

0101100
-201 0 -185 0 +20 0 -220 0 *
Fa
0  1e-07 15 0

0101000
+17 0 *
Ed
 1e-07 1 1 0
1  99 0 0 1.5707963267949
2  209 7 0 0 1.5707963267949
2  210 4 0 0 1.5707963267949
4 G1 7 0 4 0
0

0101000
+276 0 -244 0 *
Wi

0101100
-15 0 +268 0 -243 0 +256 0 *
Fa
0  0 7 0

0101000
+14 0 *
Ed
 1e-07 1 1 0
1  100 0 0 1.5707963267949
2  211 3 0 0 1.5707963267949
2  212 6 0 0 1.5707963267949
4 G1 3 0 6 0
0

0101000
+278 0 -226 0 *
Wi

0101100
-12 0 +270 0 -224 0 +238 0 *
Fa
0  0 6 0

0101000
+11 0 *
Wi

0101100
+247 0 -275 0 +242 0 -15 0 *
Fa
0  0 4 0

0101000
+9 0 *
Wi

0101100
+229 0 -277 0 +225 0 -12 0 *
Fa
0  0 3 0

0101000
+7 0 *
Wi

0101100
+260 0 -232 0 +250 0 -279 0 *
Fa
0  1e-07 2 0

0101000
+5 0 *
Sh

0101100
+272 0 +265 0 +258 0 +251 0 -245 0 -240 0 -233 0 +227 0 +205 0 +198 0 
-158 0 +151 0 +144 0 -137 0 -130 0 +123 0 -116 0 +109 0 +102 0 +95 0 
+88 0 +81 0 +74 0 -70 0 -68 0 -65 0 -62 0 +59 0 -56 0 -53 0 
+50 0 -47 0 -44 0 +41 0 -38 0 -36 0 -33 0 +30 0 +27 0 -24 0 
-21 0 -18 0 +16 0 -13 0 +10 0 +8 0 -6 0 +4 0 *
So

0100000
+3 0 *
Co

1100000
+2 0 *

+1 0 